<?xml version="1.0" standalone="no"?><!DOCTYPE svg PUBLIC "-//W3C//DTD SVG 1.1//EN" "http://www.w3.org/Graphics/SVG/1.1/DTD/svg11.dtd"><svg t="1604325597240" class="icon" viewBox="0 0 1024 1024" version="1.1" xmlns="http://www.w3.org/2000/svg" p-id="19827" xmlns:xlink="http://www.w3.org/1999/xlink" width="200" height="200"><defs><style type="text/css"></style></defs><path d="M869.376 563.2H757.76V153.6c0-28.16-23.04-51.2-51.2-51.2H153.6c-28.16 0-51.2 23.04-51.2 51.2v614.4c0 84.992 68.608 153.6 153.6 153.6h558.08c59.392 0 107.52-47.104 107.52-104.96V614.4c0-28.16-23.552-51.2-52.224-51.2zM153.6 768V153.6h552.96v660.48c0 20.48 6.144 39.936 15.872 56.32H256c-56.32 0-102.4-46.08-102.4-102.4z m716.8 48.64c0 29.696-25.088 53.76-56.32 53.76s-56.32-25.088-56.32-56.32v-199.68h111.616c0.512 0 1.024 0.512 1.024 0.512v201.728z" fill="" p-id="19828"></path><path d="M609.28 307.2H250.88c-14.336 0-25.6-11.264-25.6-25.6s11.264-25.6 25.6-25.6h358.4c14.336 0 25.6 11.264 25.6 25.6s-11.264 25.6-25.6 25.6z m25.6 128c0-14.336-11.264-25.6-25.6-25.6H250.88c-14.336 0-25.6 11.264-25.6 25.6s11.264 25.6 25.6 25.6h358.4c14.336 0 25.6-11.264 25.6-25.6z m0 153.6c0-14.336-11.264-25.6-25.6-25.6H250.88c-14.336 0-25.6 11.264-25.6 25.6s11.264 25.6 25.6 25.6h358.4c14.336 0 25.6-11.264 25.6-25.6z m-204.8 153.6c0-14.336-11.264-25.6-25.6-25.6H250.88c-14.336 0-25.6 11.264-25.6 25.6s11.264 25.6 25.6 25.6h153.6c14.336 0 25.6-11.264 25.6-25.6z" fill="" p-id="19829"></path></svg>