<?xml version="1.0" standalone="no"?><!DOCTYPE svg PUBLIC "-//W3C//DTD SVG 1.1//EN" "http://www.w3.org/Graphics/SVG/1.1/DTD/svg11.dtd"><svg t="1602947546589" class="icon" viewBox="0 0 1024 1024" version="1.1" xmlns="http://www.w3.org/2000/svg" p-id="1430" xmlns:xlink="http://www.w3.org/1999/xlink" width="200" height="200"><defs><style type="text/css"></style></defs><path d="M985.846584 416.490448L582.40058 43.792061a107.150786 107.150786 0 0 0-160.260307 0l-388.538068 372.698387a68.949202 68.949202 0 0 0 49.382536 116.468246h34.474601v382.947593a107.150786 107.150786 0 0 0 107.150786 108.082532h166.782528a40.065077 40.065077 0 0 0 40.996823-39.133331V730.488839a18.634919 18.634919 0 0 1 17.703173-20.498411h118.331738a19.566665 19.566665 0 0 1 18.63492 20.498411v254.366649a39.133331 39.133331 0 0 0 40.065076 39.133331h166.782529a108.082532 108.082532 0 0 0 108.082532-108.082532V528.299964h34.474601a67.08571 67.08571 0 0 0 63.358726-41.928569 66.153964 66.153964 0 0 0-13.97619-73.607931z m0 0" p-id="1431" fill="#dbdbdb"></path></svg>