<?xml version="1.0" standalone="no"?><!DOCTYPE svg PUBLIC "-//W3C//DTD SVG 1.1//EN" "http://www.w3.org/Graphics/SVG/1.1/DTD/svg11.dtd"><svg t="1604160408254" class="icon" viewBox="0 0 1024 1024" version="1.1" xmlns="http://www.w3.org/2000/svg" p-id="1286" xmlns:xlink="http://www.w3.org/1999/xlink" width="200" height="200"><defs><style type="text/css"></style></defs><path d="M420.6 308H296.8c-8.2 0-14.9 6.7-14.9 14.9v123.8c0 8.2 6.7 14.9 14.9 14.9h123.8c8.2 0 14.9-6.7 14.9-14.9V323c0-8.3-6.7-15-14.9-15zM701 588.5H577.2c-8.2 0-14.9 6.7-14.9 14.9v123.8c0 8.2 6.7 14.9 14.9 14.9H701c8.2 0 14.9-6.7 14.9-14.9V603.4c0.1-8.2-6.6-14.9-14.9-14.9zM420.6 588.5H296.8c-8.2 0-14.9 6.7-14.9 14.9v123.8c0 8.2 6.7 14.9 14.9 14.9h123.8c8.2 0 14.9-6.7 14.9-14.9V603.4c0-8.2-6.7-14.9-14.9-14.9zM650.3 286.2c-5.8-5.8-15.3-5.8-21.1 0l-87.5 87.6c-5.8 5.8-5.8 15.3 0 21.1l87.5 87.5c5.8 5.8 15.3 5.8 21.1 0l87.6-87.5c5.8-5.8 5.8-15.3 0-21.1l-87.6-87.6z" fill="#FAA77D" p-id="1287"></path><path d="M512 63.5C264.3 63.5 63.5 264.3 63.5 512S264.3 960.5 512 960.5 960.5 759.7 960.5 512 759.7 63.5 512 63.5z m-50.9 663.7c0 22.4-18.1 40.6-40.6 40.6H296.8c-22.4 0-40.6-18.1-40.6-40.6V603.4c0-22.4 18.1-40.6 40.6-40.6h123.8c22.4 0 40.6 18.2 40.6 40.6v123.8z m0-280.4c0 22.4-18.1 40.6-40.6 40.6H296.8c-22.4 0-40.6-18.1-40.6-40.6V323c0-22.4 18.1-40.5 40.6-40.5h123.8c22.4 0 40.6 18.1 40.6 40.5v123.8z m280.4 280.4c0 22.4-18.1 40.6-40.6 40.6H577.2c-22.4 0-40.6-18.1-40.6-40.6V603.4c0-22.4 18.1-40.6 40.6-40.6H701c22.4 0 40.5 18.2 40.5 40.6v123.8zM755.9 413l-87.5 87.5c-15.8 15.8-41.5 15.8-57.4 0L523.5 413c-15.8-15.8-15.8-41.5 0-57.4l87.5-87.5c15.8-15.8 41.5-15.8 57.4 0l87.5 87.5c15.9 15.8 15.9 41.5 0 57.4z" fill="#FAA77D" p-id="1288"></path></svg>