<?xml version="1.0" standalone="no"?><!DOCTYPE svg PUBLIC "-//W3C//DTD SVG 1.1//EN" "http://www.w3.org/Graphics/SVG/1.1/DTD/svg11.dtd"><svg t="1604160809698" class="icon" viewBox="0 0 1024 1024" version="1.1" xmlns="http://www.w3.org/2000/svg" p-id="3002" xmlns:xlink="http://www.w3.org/1999/xlink" width="200" height="200"><defs><style type="text/css"></style></defs><path d="M633.1 558.4m-136.1 0a136.1 136.1 0 1 0 272.2 0 136.1 136.1 0 1 0-272.2 0Z" fill="#ECDDAF" p-id="3003"></path><path d="M633.1 709.5c-83.3 0-151.1-67.8-151.1-151.1s67.8-151.1 151.1-151.1S784.3 475 784.3 558.4c0 83.3-67.8 151.1-151.2 151.1z m0-272.3c-66.8 0-121.1 54.3-121.1 121.1s54.3 121.1 121.1 121.1 121.1-54.3 121.1-121.1c0.1-66.7-54.3-121.1-121.1-121.1z" fill="#6F1616" p-id="3004"></path><path d="M633 891.8c-46.5 0-84.5-38-84.5-84.5v-42.6c0-46.5 38-84.5 84.5-84.5s84.5 38 84.5 84.5v42.6c-0.1 46.5-38.1 84.5-84.5 84.5z" fill="#B73131" p-id="3005"></path><path d="M633 906.8c-54.8 0-99.5-44.6-99.5-99.5v-42.6c0-54.8 44.6-99.5 99.5-99.5s99.5 44.6 99.5 99.5v42.6c-0.1 54.8-44.7 99.5-99.5 99.5z m0-211.5c-38.3 0-69.5 31.2-69.5 69.5v42.6c0 38.3 31.2 69.5 69.5 69.5s69.5-31.2 69.5-69.5v-42.6c-0.1-38.4-31.2-69.5-69.5-69.5z" fill="#6F1616" p-id="3006"></path><path d="M648.5 865.8c-28.9 0-52.6-23.7-52.6-52.6v-88.3c0-28.9 23.7-52.6 52.6-52.6 28.9 0 52.6 23.7 52.6 52.6v88.3c0 28.9-23.7 52.6-52.6 52.6z" fill="#D74040" p-id="3007"></path><path d="M357.9 892h-5.8c-26.5 0-48.1-21.7-48.1-48.1V486.7c0-26.5 21.7-48.1 48.1-48.1h5.8c26.5 0 48.1 21.7 48.1 48.1v357.2c0 26.4-21.7 48.1-48.1 48.1z" fill="#B73131" p-id="3008"></path><path d="M357.9 907h-5.8c-34.8 0-63.1-28.3-63.1-63.1V486.7c0-34.8 28.3-63.1 63.1-63.1h5.8c34.8 0 63.1 28.3 63.1 63.1v357.2c0 34.8-28.3 63.1-63.1 63.1z m-5.8-453.4c-18.3 0-33.1 14.9-33.1 33.1v357.2c0 18.3 14.9 33.1 33.1 33.1h5.8c18.3 0 33.1-14.9 33.1-33.1V486.7c0-18.3-14.9-33.1-33.1-33.1h-5.8z" fill="#6F1616" p-id="3009"></path><path d="M366.9 872.7c-12.3 0-22.3-10-22.3-22.3V480.2c0-12.3 10-22.3 22.3-22.3s22.3 10 22.3 22.3v370.1c0.1 12.3-10 22.4-22.3 22.4z" fill="#D74040" p-id="3010"></path><path d="M357.7 241.3m-110.9 0a110.9 110.9 0 1 0 221.8 0 110.9 110.9 0 1 0-221.8 0Z" fill="#ECDDAF" p-id="3011"></path><path d="M357.7 367.2c-69.4 0-125.9-56.5-125.9-125.9s56.5-125.9 125.9-125.9 125.9 56.5 125.9 125.9-56.4 125.9-125.9 125.9z m0-221.9c-52.9 0-95.9 43-95.9 95.9s43 95.9 95.9 95.9 95.9-43 95.9-95.9-43-95.9-95.9-95.9z" fill="#6F1616" p-id="3012"></path><path d="M407 529.2H303l-31.4-214h167.9z" fill="#CDB37E" p-id="3013"></path><path d="M419.9 544.2H290l-35.8-244H457l-37.1 244z m-104-30H394l28-184H289l26.9 184z" fill="#6F1616" p-id="3014"></path><path d="M548.5 671.3h168.9v90.9H548.5z" fill="#CDB37E" p-id="3015"></path><path d="M732.4 777.2H533.5V656.3h198.9v120.9z m-168.9-30h138.9v-60.9H563.5v60.9z" fill="#6F1616" p-id="3016"></path></svg>