<?xml version="1.0" standalone="no"?><!DOCTYPE svg PUBLIC "-//W3C//DTD SVG 1.1//EN" "http://www.w3.org/Graphics/SVG/1.1/DTD/svg11.dtd"><svg t="1604160255005" class="icon" viewBox="0 0 1024 1024" version="1.1" xmlns="http://www.w3.org/2000/svg" p-id="4643" xmlns:xlink="http://www.w3.org/1999/xlink" width="200" height="200"><defs><style type="text/css"></style></defs><path d="M173.056 377.856c-19.968 0-36.864-15.36-38.912-35.328-2.048-21.504 13.824-40.448 35.328-41.984 21.504-2.048 40.448 13.824 41.984 35.328 2.048 21.504-13.824 40.448-35.328 41.984h-3.072z m0-68.096h-2.56c-15.872 1.536-28.16 15.36-26.624 31.744 1.536 15.872 15.36 27.648 31.744 26.624 15.872-1.536 28.16-15.36 26.624-31.744-1.024-14.848-13.824-26.624-29.184-26.624zM888.832 723.968c-14.336 0-26.112-10.752-27.648-25.088-1.536-15.36 9.728-28.672 25.088-29.696 7.168-0.512 14.336 1.536 19.968 6.144 5.632 4.608 9.216 11.264 9.728 18.944 1.536 15.36-9.728 28.672-25.088 29.696h-2.048z m0-45.568h-1.536c-9.728 1.024-16.896 9.728-16.384 19.456 1.024 9.728 9.216 16.896 19.456 16.384 9.728-1.024 16.896-9.728 16.384-19.456-1.024-9.216-8.704-16.384-17.92-16.384zM271.872 208.896c-5.12 0-9.728-1.536-13.824-5.12-4.608-4.096-7.168-9.216-7.68-14.848-1.024-11.776 7.68-22.528 19.456-23.552 11.776-1.024 22.528 7.68 23.552 19.456 0.512 5.632-1.024 11.264-5.12 15.872-3.584 4.608-8.704 7.168-14.848 7.68-0.512 0.512-1.024 0.512-1.536 0.512z m0-33.792h-1.024c-6.656 0.512-11.264 6.144-10.752 12.8 0.512 3.072 1.536 6.144 4.096 8.192 2.56 2.048 5.632 3.072 8.704 2.56 3.072-0.512 6.144-1.536 8.192-4.096 2.048-2.56 3.072-5.632 2.56-8.704-0.512-6.144-5.632-10.752-11.776-10.752z" fill="#82A0F6" p-id="4644"></path><path d="M189.44 771.072h-40.448c-2.56 0-4.608-2.048-4.608-4.608s2.048-4.608 4.608-4.608H189.44c2.56 0 4.608 2.048 4.608 4.608s-2.048 4.608-4.608 4.608z" fill="#2B77EF" p-id="4645"></path><path d="M168.96 791.04c-2.56 0-4.608-2.048-4.608-4.608v-40.448c0-2.56 2.048-4.608 4.608-4.608s4.608 2.048 4.608 4.608v40.448c0.512 2.56-1.536 4.608-4.608 4.608z" fill="#2B77EF" p-id="4646"></path><path d="M872.96 410.624h-40.448c-2.56 0-4.608-2.048-4.608-4.608s2.048-4.608 4.608-4.608h40.448c2.56 0 4.608 2.048 4.608 4.608s-2.048 4.608-4.608 4.608z" fill="#82A0F6" p-id="4647"></path><path d="M852.992 430.592c-2.56 0-4.608-2.048-4.608-4.608v-40.448c0-2.56 2.048-4.608 4.608-4.608s4.608 2.048 4.608 4.608v40.448c0 2.56-2.048 4.608-4.608 4.608z" fill="#82A0F6" p-id="4648"></path><path d="M536.576 679.424h-394.24c-22.016 0-39.936-17.92-39.936-39.936s17.92-39.936 39.936-39.936h394.24c22.016 0 39.936 17.92 39.936 39.936s-17.92 39.936-39.936 39.936z" fill="#E3EEFF" p-id="4649"></path><path d="M538.112 821.76H532.48c-39.424 0-71.168-31.744-71.168-71.168s31.744-71.168 71.168-71.168h5.632v-79.872H168.96v79.872h134.144c39.424 0 71.168 31.744 71.168 71.168s-31.744 71.168-71.168 71.168H168.96v79.872h368.64v-79.872z" fill="#E3EEFF" p-id="4650"></path><path d="M560.128 478.208c0-14.336-11.776-26.112-26.112-26.624H269.824c-14.848 0-26.624 11.776-26.624 26.624s11.776 26.624 26.624 26.624h107.52c26.112 0 47.616 20.992 47.616 47.616s-20.992 47.616-47.616 47.616H287.744v53.76h246.272v-53.76h-4.096c-26.112 0-47.616-20.992-47.616-47.616s20.992-47.616 47.616-47.616h4.096c14.336-0.512 26.112-12.288 26.112-26.624zM707.584 821.76H142.336c-22.016 0-39.936 17.92-39.936 39.936s17.92 39.936 39.936 39.936h565.248v-79.872zM722.432 821.76h33.792v79.872h-33.792zM797.184 821.76h22.016v79.872h-22.016zM881.152 821.76h-50.688v79.872h50.688c22.016 0 39.936-17.92 39.936-39.936s-17.92-39.936-39.936-39.936z" fill="#E3EEFF" p-id="4651"></path><path d="M876.032 214.016c-2.56 0-4.608-2.048-4.608-4.608v-29.696l-20.992 20.992c-2.048 2.048-5.12 2.048-6.656 0-2.048-2.048-2.048-5.12 0-6.656l20.992-20.992H834.56c-2.56 0-4.608-2.048-4.608-4.608s2.048-4.608 4.608-4.608h29.696l-20.992-20.992c-2.048-2.048-2.048-5.12 0-6.656 2.048-2.048 5.12-2.048 6.656 0l20.992 20.992v-29.696c0-2.56 2.048-4.608 4.608-4.608s4.608 2.048 4.608 4.608v29.696l20.992-20.992c2.048-2.048 5.12-2.048 6.656 0 2.048 2.048 2.048 5.12 0 6.656l-20.992 20.992h29.696c2.56 0 4.608 2.048 4.608 4.608s-2.048 4.608-4.608 4.608h-29.696l20.992 20.992c2.048 2.048 2.048 5.12 0 6.656-2.048 2.048-5.12 2.048-6.656 0l-20.992-20.992v29.696c0.512 2.56-1.536 4.608-4.096 4.608z" fill="#82A0F6" p-id="4652"></path><path d="M707.584 792.064c0 25.088-17.408 45.568-38.4 45.568 20.992 0 38.4 20.48 38.4 45.568 0-25.088 17.408-45.568 38.4-45.568-20.992 0-38.4-20.48-38.4-45.568z" fill="#76A6EF" p-id="4653"></path><path d="M677.376 208.896c-6.144 0-12.288-2.048-17.408-6.144-5.632-4.608-8.704-11.264-9.216-18.432s1.536-13.824 6.144-19.456c4.608-5.632 11.264-8.704 18.432-9.216 7.168-0.512 13.824 1.536 19.456 6.144 5.632 4.608 8.704 11.264 9.216 18.432 0.512 7.168-1.536 13.824-6.144 19.456-4.608 5.632-11.264 8.704-18.432 9.216h-2.048z m0-44.032h-1.536c-4.608 0.512-8.704 2.56-11.776 6.144-3.072 3.584-4.096 7.68-4.096 12.288 0.512 4.608 2.56 8.704 6.144 11.776 3.584 3.072 8.192 4.096 12.288 4.096 4.608-0.512 8.704-2.56 11.776-6.144s4.096-7.68 4.096-12.288c-0.512-4.608-2.56-8.704-6.144-11.776-2.56-2.56-6.656-4.096-10.752-4.096z" fill="#82A0F6" p-id="4654"></path><path d="M797.696 425.984h-160.256c-9.216 0-16.384-7.168-16.384-16.384V248.832c0-9.216-7.168-16.384-16.384-16.384H418.816c-9.216 0-16.384 7.168-16.384 16.384v160.256c0 9.216-7.168 16.384-16.384 16.384H225.28c-9.216 0-16.384 7.168-16.384 16.384v185.344c0 9.216 7.168 16.384 16.384 16.384h160.256c9.216 0 16.384 7.168 16.384 16.384v160.256c0 9.216 7.168 16.384 16.384 16.384H604.16c9.216 0 16.384-7.168 16.384-16.384V660.48c0-9.216 7.168-16.384 16.384-16.384h160.256c9.216 0 16.384-7.168 16.384-16.384V442.368c0.512-9.216-6.656-16.384-15.872-16.384z" fill="#f14920" p-id="4655"></path><path d="M371.712 438.272h23.04c19.968 0 36.352-13.824 36.352-31.232V235.52h-28.672v184.32l-30.72 18.432zM374.272 635.904h23.04c19.968 0 36.352 13.824 36.352 31.232v171.008h-28.672v-183.808l-30.72-18.432z" fill="#FFFFFF" p-id="4656"></path><path d="M797.696 425.984h-160.256c-9.216 0-16.384-7.168-16.384-16.384V248.832c0-9.216-7.168-16.384-16.384-16.384H418.816c-9.216 0-16.384 7.168-16.384 16.384v3.072h168.448c9.216 0 16.384 7.168 16.384 16.384v160.256c0 9.216 7.168 16.384 16.384 16.384h160.256c9.216 0 16.384 7.168 16.384 16.384v182.272h16.384c9.216 0 16.384-7.168 16.384-16.384V442.368c1.024-9.216-6.144-16.384-15.36-16.384z" fill="#76A6EF" p-id="4657"></path><path d="M240.64 431.104v207.872h-15.872l-15.872-15.872V446.976l15.872-15.872z" fill="#FFFFFF" p-id="4658"></path><path d="M208.896 542.72c-4.096 0-7.68-3.584-7.68-7.68v-24.064c0-4.096 3.584-7.68 7.68-7.68s7.68 3.584 7.68 7.68v24.064c0 4.096-3.584 7.68-7.68 7.68zM208.896 483.84c-4.096 0-7.68-3.584-7.68-7.68v-33.792c0-13.312 10.752-24.064 24.064-24.064h160.256c4.608 0 8.704-4.096 8.704-8.704V312.32c0-4.096 3.584-7.68 7.68-7.68s7.68 3.584 7.68 7.68v97.28c0 13.312-10.752 24.064-24.064 24.064H225.28c-4.608 0-8.704 4.096-8.704 8.704V476.16c0 4.096-3.584 7.68-7.68 7.68z" fill="#2B77EF" p-id="4659"></path><path d="M604.16 845.312H418.816c-13.312 0-24.064-10.752-24.064-24.064V660.48c0-4.608-4.096-8.704-8.704-8.704H225.28c-13.312 0-24.064-10.752-24.064-24.064v-56.32c0-4.096 3.584-7.68 7.68-7.68s7.68 3.584 7.68 7.68v56.32c0 4.608 4.096 8.704 8.704 8.704h160.256c13.312 0 24.064 10.752 24.064 24.064v160.256c0 4.608 4.096 8.704 8.704 8.704H604.16c4.608 0 8.704-4.096 8.704-8.704V660.48c0-13.312 10.752-24.064 24.064-24.064h160.256c4.608 0 8.704-4.096 8.704-8.704V442.368c0-4.608-4.096-8.704-8.704-8.704h-160.256c-13.312 0-24.064-10.752-24.064-24.064V248.832c0-4.608-4.096-8.704-8.704-8.704H418.816c-4.608 0-8.704 4.096-8.704 8.704v29.184c0 4.096-3.584 7.68-7.68 7.68s-7.68-3.584-7.68-7.68v-29.184c0-13.312 10.752-24.064 24.064-24.064H604.16c13.312 0 24.064 10.752 24.064 24.064v160.256c0 4.608 4.096 8.704 8.704 8.704h160.256c13.312 0 24.064 10.752 24.064 24.064v185.344c0 13.312-10.752 24.064-24.064 24.064h-160.256c-4.608 0-8.704 4.096-8.704 8.704v160.256c0 14.336-10.752 25.088-24.064 25.088z" fill="#2B77EF" p-id="4660"></path><path d="M567.296 547.84H465.408c-4.608 0-8.704-4.096-8.704-8.704 0-4.608 4.096-8.704 8.704-8.704h101.888c4.608 0 8.704 4.096 8.704 8.704 0 4.608-4.096 8.704-8.704 8.704z" fill="#F68282" p-id="4661"></path><path d="M507.904 589.824V488.448c0-4.608 4.096-8.704 8.704-8.704 4.608 0 8.704 4.096 8.704 8.704v101.888c0 4.608-4.096 8.704-8.704 8.704-5.12-0.512-8.704-4.608-8.704-9.216z" fill="#F68282" p-id="4662"></path></svg>