<?xml version="1.0" standalone="no"?><!DOCTYPE svg PUBLIC "-//W3C//DTD SVG 1.1//EN" "http://www.w3.org/Graphics/SVG/1.1/DTD/svg11.dtd"><svg t="1604157635108" class="icon" viewBox="0 0 1024 1024" version="1.1" xmlns="http://www.w3.org/2000/svg" p-id="5164" xmlns:xlink="http://www.w3.org/1999/xlink" width="200" height="200"><defs><style type="text/css"></style></defs><path d="M893.952 822.272m-109.568 0a109.568 109.568 0 1 0 219.136 0 109.568 109.568 0 1 0-219.136 0Z" fill="#BFBFBF" p-id="5165"></path><path d="M893.952 942.08c-66.56 0-119.808-54.272-119.808-119.808s54.272-119.808 119.808-119.808S1013.76 755.712 1013.76 822.272 959.488 942.08 893.952 942.08z m0-219.136c-55.296 0-99.328 45.056-99.328 99.328S839.68 921.6 893.952 921.6s99.328-45.056 99.328-99.328-45.056-99.328-99.328-99.328z" fill="#0F0F0F" p-id="5166"></path><path d="M774.144 343.04h50.176l119.808 279.552s-229.376-19.456-229.376 219.136H385.024v-69.632H624.64s39.936-199.68 199.68-209.92l-10.24-199.68-39.936-19.456z" fill="#FDC300" p-id="5167"></path><path d="M713.728 857.088H385.024c-8.192 0-15.36-7.168-15.36-15.36v-69.632c0-8.192 7.168-15.36 15.36-15.36h227.328c12.288-44.032 61.44-189.44 195.584-207.872L798.72 372.736l-31.744-16.384c-6.144-3.072-9.216-10.24-8.192-17.408 2.048-7.168 8.192-12.288 15.36-12.288h50.176c6.144 0 11.264 4.096 14.336 9.216l119.808 279.552c2.048 5.12 1.024 10.24-2.048 15.36-3.072 4.096-8.192 7.168-13.312 6.144-1.024 0-94.208-7.168-155.648 50.176-37.888 34.816-57.344 87.04-57.344 154.624-1.024 9.216-7.168 15.36-16.384 15.36z m-313.344-30.72h299.008c3.072-69.632 25.6-123.904 66.56-161.792 51.2-47.104 118.784-56.32 154.624-58.368l-89.088-207.872 8.192 163.84c0 8.192-6.144 15.36-14.336 16.384-145.408 9.216-185.344 195.584-185.344 197.632-1.024 7.168-8.192 12.288-15.36 12.288H400.384v37.888z" fill="#0F0F0F" p-id="5168"></path><path d="M951.296 822.272c0 31.744-25.6 57.344-57.344 57.344-31.744 0-57.344-25.6-57.344-57.344 0-31.744 25.6-57.344 57.344-57.344 31.744 0 57.344 25.6 57.344 57.344z" fill="#9CFFFF" p-id="5169"></path><path d="M893.952 889.856c-36.864 0-67.584-29.696-67.584-67.584s29.696-67.584 67.584-67.584 67.584 29.696 67.584 67.584-30.72 67.584-67.584 67.584z m0-114.688c-25.6 0-47.104 21.504-47.104 47.104s21.504 47.104 47.104 47.104 47.104-21.504 47.104-47.104-21.504-47.104-47.104-47.104z" fill="#0F0F0F" p-id="5170"></path><path d="M286.72 822.272m-109.568 0a109.568 109.568 0 1 0 219.136 0 109.568 109.568 0 1 0-219.136 0Z" fill="#BFBFBF" p-id="5171"></path><path d="M286.72 942.08c-66.56 0-119.808-54.272-119.808-119.808S220.16 702.464 286.72 702.464s119.808 54.272 119.808 119.808S353.28 942.08 286.72 942.08z m0-219.136c-55.296 0-99.328 45.056-99.328 99.328S231.424 921.6 286.72 921.6s99.328-45.056 99.328-99.328-45.056-99.328-99.328-99.328z" fill="#0F0F0F" p-id="5172"></path><path d="M344.064 822.272c0 31.744-25.6 57.344-57.344 57.344-31.744 0-57.344-25.6-57.344-57.344 0-31.744 25.6-57.344 57.344-57.344 31.744 0 57.344 25.6 57.344 57.344z" fill="#9CFFFF" p-id="5173"></path><path d="M286.72 889.856c-36.864 0-67.584-29.696-67.584-67.584s29.696-67.584 67.584-67.584 67.584 29.696 67.584 67.584-30.72 67.584-67.584 67.584z m0-114.688c-25.6 0-47.104 21.504-47.104 47.104s21.504 47.104 47.104 47.104c25.6 0 47.104-21.504 47.104-47.104s-21.504-47.104-47.104-47.104z" fill="#0F0F0F" p-id="5174"></path><path d="M471.04 796.672c0-102.4-82.944-184.32-184.32-184.32-102.4 0-184.32 82.944-184.32 184.32h368.64z" fill="#FDC300" p-id="5175"></path><path d="M471.04 812.032H102.4c-8.192 0-15.36-7.168-15.36-15.36C87.04 686.08 177.152 596.992 286.72 596.992c110.592 0 199.68 90.112 199.68 199.68 0 9.216-7.168 15.36-15.36 15.36z m-353.28-30.72h336.896c-8.192-86.016-80.896-153.6-168.96-153.6-87.04 0-159.744 67.584-167.936 153.6z" fill="#0F0F0F" p-id="5176"></path><path d="M454.656 612.352H187.392c-39.936 0-71.68-11.264-71.68-24.576 0-13.312 31.744-24.576 71.68-24.576h202.752c8.192 0 15.36 1.024 19.456 4.096l61.44 35.84c8.192 3.072-1.024 9.216-16.384 9.216z" fill="#D6D6D6" p-id="5177"></path><path d="M454.656 622.592H187.392c-39.936 0-81.92-11.264-81.92-34.816s43.008-34.816 81.92-34.816h202.752c10.24 0 18.432 2.048 24.576 5.12l61.44 35.84c7.168 4.096 9.216 11.264 7.168 15.36-3.072 12.288-22.528 13.312-28.672 13.312z m-267.264-50.176c-39.936 0-60.416 11.264-61.44 15.36 2.048 4.096 22.528 14.336 61.44 14.336H450.56l-47.104-26.624c-2.048-1.024-7.168-2.048-14.336-2.048H187.392z" fill="#0F0F0F" p-id="5178"></path><path d="M501.76 279.552l-163.84 163.84-1.024 1.024c-4.096 6.144-59.392 94.208 50.176 143.36h1.024c8.192 2.048 107.52 21.504 121.856 35.84 12.288 12.288 8.192 101.376 7.168 123.904 0 3.072 2.048 5.12 5.12 5.12h82.944c3.072 0 5.12-2.048 5.12-5.12V577.536c0-15.36-10.24-29.696-24.576-35.84l-147.456-53.248c-3.072-1.024-4.096-6.144-2.048-8.192l86.016-86.016c1.024-1.024 2.048-1.024 4.096-1.024h229.376c3.072 0 5.12-2.048 5.12-5.12v-61.44c0-3.072-2.048-5.12-5.12-5.12H544.768c-3.072 0-5.12-3.072-5.12-6.144 2.048-12.288 2.048-41.984-34.816-37.888-1.024 1.024-2.048 1.024-3.072 2.048z" fill="#9CFFFF" p-id="5179"></path><path d="M605.184 762.88H522.24c-4.096 0-8.192-2.048-11.264-5.12-3.072-3.072-4.096-7.168-4.096-11.264 3.072-67.584 0-109.568-5.12-116.736-6.144-6.144-57.344-21.504-115.712-32.768-1.024 0-2.048-1.024-3.072-1.024-37.888-16.384-61.44-39.936-70.656-69.632-12.288-43.008 13.312-83.968 16.384-88.064 0-1.024 1.024-2.048 2.048-2.048l163.84-163.84c2.048-2.048 6.144-4.096 9.216-4.096 16.384-2.048 28.672 1.024 36.864 10.24 9.216 9.216 10.24 23.552 10.24 32.768h205.824c8.192 0 15.36 7.168 15.36 15.36v61.44c0 8.192-7.168 15.36-15.36 15.36H528.384l-78.848 78.848L588.8 532.48c18.432 7.168 31.744 24.576 31.744 45.056V747.52c0 8.192-7.168 15.36-15.36 15.36z m-76.8-20.48h72.704v-163.84c0-11.264-7.168-21.504-18.432-25.6l-147.456-53.248c-5.12-2.048-8.192-6.144-10.24-11.264s0-10.24 4.096-14.336l86.016-86.016c3.072-3.072 7.168-4.096 11.264-4.096h224.256v-51.2H544.768c-4.096 0-9.216-2.048-11.264-5.12-3.072-3.072-4.096-8.192-3.072-12.288 1.024-5.12 2.048-16.384-4.096-21.504-4.096-4.096-12.288-5.12-18.432-4.096L346.112 450.56c-3.072 5.12-22.528 37.888-13.312 70.656 7.168 23.552 26.624 41.984 58.368 56.32 33.792 7.168 111.616 23.552 125.952 38.912 4.096 3.072 16.384 15.36 11.264 125.952zM391.168 577.536zM501.76 279.552z" fill="#0F0F0F" p-id="5180"></path><path d="M592.896 195.584m-82.944 0a82.944 82.944 0 1 0 165.888 0 82.944 82.944 0 1 0-165.888 0Z" fill="#9CFFFF" p-id="5181"></path><path d="M592.896 288.768c-51.2 0-93.184-41.984-93.184-93.184s41.984-93.184 93.184-93.184 93.184 41.984 93.184 93.184-41.984 93.184-93.184 93.184z m0-164.864c-39.936 0-72.704 32.768-72.704 72.704 0 39.936 32.768 72.704 72.704 72.704s72.704-32.768 72.704-72.704c-1.024-40.96-32.768-72.704-72.704-72.704z" fill="#0F0F0F" p-id="5182"></path><path d="M232.448 592.896h-184.32c-15.36 0-27.648-12.288-27.648-27.648v-184.32c0-15.36 12.288-27.648 27.648-27.648h184.32c15.36 0 27.648 12.288 27.648 27.648v184.32c0 15.36-12.288 27.648-27.648 27.648z" fill="#FF8E90" p-id="5183"></path><path d="M232.448 608.256h-184.32c-23.552 0-43.008-19.456-43.008-43.008v-184.32c0-23.552 19.456-43.008 43.008-43.008h184.32c23.552 0 43.008 19.456 43.008 43.008v184.32c0 23.552-19.456 43.008-43.008 43.008zM48.128 368.64c-7.168 0-12.288 5.12-12.288 12.288v184.32c0 7.168 5.12 12.288 12.288 12.288h184.32c7.168 0 12.288-5.12 12.288-12.288v-184.32c0-7.168-5.12-12.288-12.288-12.288h-184.32z" fill="#0F0F0F" p-id="5184"></path><path d="M199.68 293.888H100.352c-8.192 0-15.36-7.168-15.36-15.36s7.168-15.36 15.36-15.36h99.328c8.192 0 15.36 7.168 15.36 15.36s-6.144 15.36-15.36 15.36z" fill="#0F0F0F" p-id="5185"></path><path d="M470.016 233.472H289.792c-8.192 0-15.36-7.168-15.36-15.36s7.168-15.36 15.36-15.36h179.2c8.192 0 15.36 7.168 15.36 15.36s-6.144 15.36-14.336 15.36z" fill="#0F0F0F" p-id="5186"></path><path d="M912.384 535.552c34.816-16.384 49.152-58.368 32.768-93.184-16.384-34.816-58.368-49.152-93.184-32.768l60.416 125.952z" fill="#FFFFFF" p-id="5187"></path><path d="M912.384 550.912c-6.144 0-11.264-3.072-14.336-9.216l-60.416-125.952c-2.048-4.096-2.048-8.192-1.024-11.264 1.024-4.096 4.096-7.168 8.192-9.216 20.48-10.24 44.032-11.264 65.536-3.072 21.504 7.168 38.912 22.528 48.128 44.032 10.24 20.48 11.264 44.032 3.072 65.536-7.168 21.504-22.528 38.912-44.032 48.128-1.024 1.024-3.072 1.024-5.12 1.024z m-38.912-132.096l45.056 94.208c7.168-6.144 12.288-13.312 15.36-22.528 5.12-13.312 4.096-28.672-2.048-41.984-6.144-13.312-17.408-22.528-30.72-27.648-9.216-2.048-18.432-3.072-27.648-2.048z" fill="#0F0F0F" p-id="5188"></path></svg>