<?xml version="1.0" standalone="no"?><!DOCTYPE svg PUBLIC "-//W3C//DTD SVG 1.1//EN" "http://www.w3.org/Graphics/SVG/1.1/DTD/svg11.dtd"><svg t="1604160326652" class="icon" viewBox="0 0 1024 1024" version="1.1" xmlns="http://www.w3.org/2000/svg" p-id="10429" xmlns:xlink="http://www.w3.org/1999/xlink" width="200" height="200"><defs><style type="text/css"></style></defs><path d="M328.094 206.09c-18.396-18.394-42.85-28.522-68.862-28.522h-0.01c-53.708 0.002-97.398 43.696-97.398 97.404 0 26.016 10.132 50.474 28.528 68.87 18.396 18.394 42.856 28.524 68.872 28.522 53.706-0.002 97.398-43.696 97.398-97.404 0-26.016-10.132-50.474-28.528-68.87z m-68.872 151.876c-22.17 0-43.016-8.632-58.692-24.308-15.676-15.676-24.31-36.518-24.31-58.688 0-45.768 37.234-83.006 83.002-83.008h0.01c22.166 0 43.006 8.632 58.682 24.308 15.678 15.676 24.312 36.518 24.312 58.688 0 45.77-37.236 83.006-83.004 83.008z" fill="#4A555F" p-id="10430"></path><path d="M306.038 228.146c-12.506-12.506-29.13-19.39-46.816-19.39-36.506 0.002-66.208 29.704-66.208 66.212 0 17.684 6.886 34.31 19.392 46.814 12.502 12.502 29.124 19.386 46.806 19.386h0.01c36.506-0.002 66.208-29.704 66.208-66.21 0-17.682-6.888-34.308-19.392-46.812z" fill="#FFD452" p-id="10431"></path><path d="M619.694 562.598c-2.62-29.974-29.062-53.454-60.198-53.454h-99.872l-62.286-84.5c-30.692-41.74-79.968-66.66-131.812-66.66h-23.37c-62.288 0-112.962 50.674-112.962 112.962v39.63h14.396v-39.63c0-54.348 44.218-98.566 98.566-98.566h23.37c47.284 0 92.224 22.726 120.218 60.8l64.448 87.434a7.2 7.2 0 0 0 5.794 2.926h103.508c23.738 0 43.88 17.708 45.854 40.306 1.092 12.61-2.986 24.654-11.476 33.912a44.428 44.428 0 0 1-32.65 14.366h-132.74l-79.184-66.782a7.194 7.194 0 0 0-11.84 5.502v44.998h14.396v-29.51l69.354 58.492c1.3 1.096 2.942 1.696 4.642 1.696h135.372a58.85 58.85 0 0 0 43.258-19.03c11.254-12.266 16.656-28.204 15.214-44.892z" fill="#4A555F" p-id="10432"></path><path d="M588.626 565.29c-1.248-14.012-14.012-24.954-29.128-24.954h-115.648l-71.646-97.222c-24.858-33.784-64.734-53.938-106.676-53.938h-23.37c-45.108 0-81.77 36.662-81.77 81.77v80.906c12.66 16.452 27.474 31.162 43.874 43.988h116.404v-96.63l113.97 96.118h126.59c7.822 0 15.02-3.168 20.298-8.926 5.23-5.756 7.774-13.242 7.102-21.112z" fill="#DFDFDF" p-id="10433"></path><path d="M485.37 672.262h-61.924c-52.158 0-99.588-5.992-140.976-17.81-112.142-32.022-190.464-136.384-190.464-253.796V165.954a7.198 7.198 0 0 0-7.198-7.198h-60.5a7.198 7.198 0 0 0-7.198 7.198l0.006 513.198c-0.164 3.87-3.332 95.486 57.294 158.744 36.402 37.984 87.884 57.244 153.01 57.244h167.974c53.58 0 97.172-43.592 97.172-97.172V679.46a7.196 7.196 0 0 0-7.196-7.198z m-7.2 125.708c0 45.642-37.134 82.776-82.776 82.776H227.42c-61 0-108.956-17.74-142.534-52.726-56.38-58.738-53.424-147.374-53.382-148.562V173.152h46.104v227.504c0 123.806 82.616 233.862 200.91 267.64 42.67 12.184 91.434 18.362 144.928 18.362h54.726v111.312z" fill="#4A555F" p-id="10434"></path><path d="M423.444 703.454c-55.054 0-105.366-6.394-149.54-19.008C148.438 648.62 60.812 531.922 60.812 400.656V189.948H48.3V679.46l-0.018 0.958c-0.03 0.822-2.48 82.828 48.898 136.16 30.282 31.436 74.102 47.374 130.24 47.374h167.974c36.382 0 65.98-29.598 65.98-65.98v-94.518h-37.93z" fill="#71CCE0" p-id="10435"></path><path d="M120.422 189.636c-2.52-17.604-17.832-30.88-35.616-30.88a7.198 7.198 0 0 0-7.198 7.198v234.74a7.198 7.198 0 0 0 7.198 7.198c17.784 0 33.094-13.276 35.616-30.882a661.25 661.25 0 0 0 0-187.374z m-14.25 185.334c-1.158 8.076-6.802 14.634-14.166 17.274V174.404c7.364 2.636 13.008 9.194 14.166 17.272a646.878 646.878 0 0 1 0 183.294zM841.276 672.262H485.37a7.198 7.198 0 0 0-7.198 7.198v30.104a7.198 7.198 0 0 0 7.198 7.198h355.906a7.198 7.198 0 0 0 7.198-7.198V679.46a7.198 7.198 0 0 0-7.198-7.198z m-7.198 30.104H492.566v-15.708h341.51v15.708zM801.162 0h14.396v101.886h-14.396z" fill="#4A555F" p-id="10436"></path><path d="M945.734 94.688H678.496a7.198 7.198 0 0 0-7.198 7.198v158.104a7.198 7.198 0 0 0 7.198 7.198h267.238a7.198 7.198 0 0 0 7.198-7.198V101.886a7.198 7.198 0 0 0-7.198-7.198z m-7.198 158.104H685.694V109.084h252.842v143.708z" fill="#4A555F" p-id="10437"></path><path d="M702.492 125.88h219.25v110.118H702.492z" fill="#F58E6F" p-id="10438"></path><path d="M966.222 298.952l-13.666 4.528 4.528 13.666 13.666-4.526-4.528-13.668z m-9.05-27.33l-13.666 4.522 4.524 13.668 13.666-4.522-4.524-13.668z m18.102 54.664l-13.666 4.526 4.526 13.666 13.666-4.526-4.526-13.666z m9.054 27.332l-13.666 4.526 4.524 13.666 13.666-4.526-4.524-13.666z m18.104 54.664l-13.666 4.526 4.526 13.666 13.666-4.526-4.526-13.666z m-9.052-27.332l-13.666 4.526 4.526 13.666 13.666-4.526-4.526-13.666zM633.588 367.282l13.666 4.526 4.524-13.666-13.666-4.526-4.524 13.666z m-18.106 54.666l13.666 4.526 4.526-13.666-13.666-4.526-4.526 13.666z m9.052-27.332l13.666 4.526 4.526-13.666-13.666-4.526-4.526 13.666z m18.106-54.666l13.666 4.526 4.526-13.666-13.666-4.526-4.526 13.666z m22.63-68.328l-4.524 13.668 13.666 4.522 4.524-13.668-13.666-4.522z m-13.58 40.996l13.666 4.526 4.526-13.666-13.666-4.528-4.526 13.668z" fill="#4A555F" p-id="10439"></path><path d="M928.412 283.988h-93.768c-6.478 7.15-15.884 11.612-26.296 11.612s-19.77-4.462-26.248-11.612h-86.282l-47.422 143.524h326.47l-46.454-143.524z" fill="#FFD452" p-id="10440"></path><path d="M755.71 635.076H526.34a7.198 7.198 0 0 0-7.198 7.198c0 24.474 19.91 44.384 44.382 44.384h155.002c24.472 0 44.38-19.91 44.38-44.384a7.194 7.194 0 0 0-7.196-7.198z m-37.184 37.186h-155.002c-14.054 0-25.88-9.72-29.11-22.79h213.224c-3.232 13.07-15.058 22.79-29.112 22.79z" fill="#4A555F" p-id="10441"></path><path d="M836.04 499.894a37.69 37.69 0 0 0-17.962-22.806 7.2 7.2 0 0 0-9.796 2.758L721.38 634.82a7.198 7.198 0 0 0 2.756 9.798 37.702 37.702 0 0 0 28.824 3.43 37.674 37.674 0 0 0 22.804-17.956l56.852-101.378a37.698 37.698 0 0 0 3.424-28.82z m-15.984 21.782l-56.852 101.378a23.38 23.38 0 0 1-14.146 11.14 23.44 23.44 0 0 1-11.06 0.42l78.774-140.47a23.426 23.426 0 0 1 5.408 9.654 23.366 23.366 0 0 1-2.124 17.878zM843.954 252.792h-71.186a7.198 7.198 0 0 0-7.198 7.198c0 23.596 19.194 42.79 42.79 42.79s42.792-19.196 42.792-42.79a7.198 7.198 0 0 0-7.198-7.198z m-35.594 35.592c-13.17 0-24.274-9.014-27.47-21.196h54.944c-3.198 12.184-14.304 21.196-27.474 21.196zM300.448 880.746H193.014a7.198 7.198 0 0 0-7.198 7.198v128.858h14.396v-121.66h93.036v121.66h14.396v-128.858a7.194 7.194 0 0 0-7.196-7.198z" fill="#4A555F" p-id="10442"></path><path d="M217.008 911.938h59.444v104.864h-59.444z" fill="#F58E6F" p-id="10443"></path><path d="M678.986 885.938l-164.146-157.966-9.982 10.37 164.148 157.972c11.824 11.364 11.736 26.09 7.714 36.08-4.026 9.998-14.18 20.68-30.606 20.68h-86.952l-86.656-73.456-9.306 10.98 88.668 75.166c1.3 1.104 2.948 1.708 4.654 1.708h89.592c19.738 0 36.584-11.38 43.96-29.7 7.374-18.31 3.124-38.174-11.088-51.834z" fill="#4A555F" p-id="10444"></path><path d="M657.356 908.412l-148.006-142.434v32.002c0 26.004-8.602 50.518-24.208 70.332l80.182 67.966h80.792c9.87 0 13.796-7.104 15.026-10.16 1.226-3.048 3.318-10.878-3.786-17.706z" fill="#DFDFDF" p-id="10445"></path><path d="M797.886 960.254H451.26c-15.616 0-28.274 12.658-28.274 28.274s12.658 28.274 28.274 28.274h346.626c15.616 0 28.274-12.66 28.274-28.274s-12.658-28.274-28.274-28.274z" fill="#F58E6F" p-id="10446"></path><path d="M797.886 953.054H451.26c-19.56 0-35.472 15.912-35.472 35.472S431.7 1024 451.26 1024h346.626c19.56 0 35.472-15.912 35.472-35.472s-15.912-35.474-35.472-35.474z m0 56.55H451.26c-11.622 0-21.076-9.454-21.076-21.076s9.454-21.076 21.076-21.076h346.626c11.622 0 21.076 9.454 21.076 21.076s-9.454 21.076-21.076 21.076zM185.816 781.322h14.396v-14.396h-14.396v14.396z m0 28.792h14.396v-14.396h-14.396v14.396z m0 28.794h14.396v-14.396h-14.396v14.396z m0 28.792h14.396v-14.396h-14.396v14.396z m0-143.962h14.396v-14.396h-14.396v14.396z m0 28.792h14.396v-14.396h-14.396v14.396z m0-100.774v14.396h14.396v-14.396h-14.396z m0 43.19h14.396v-14.396h-14.396v14.396z" fill="#4A555F" p-id="10447"></path><path d="M455.292 619.324H194.938c25.242 18.618 54.082 33.014 85.562 42.038 39.302 11.228 86.474 18.09 142.954 18.09h31.84c16.604 0 30.064-13.46 30.064-30.064s-13.462-30.064-30.066-30.064z" fill="#71CCE0" p-id="10448"></path><path d="M455.292 612.124H194.938a7.196 7.196 0 0 0-4.274 12.992c26.458 19.518 56.018 34.04 87.858 43.168 42.656 12.186 91.416 18.366 144.932 18.366h31.838c20.546 0 37.262-16.716 37.262-37.26 0.002-20.55-16.714-37.266-37.262-37.266z m0 60.128h-31.838c-52.176 0-99.606-5.994-140.972-17.81-22.628-6.486-44.04-15.846-63.906-27.92h236.716c12.608 0 22.866 10.258 22.866 22.866 0.002 12.608-10.258 22.864-22.866 22.864z" fill="#4A555F" p-id="10449"></path></svg>