<?xml version="1.0" standalone="no"?><!DOCTYPE svg PUBLIC "-//W3C//DTD SVG 1.1//EN" "http://www.w3.org/Graphics/SVG/1.1/DTD/svg11.dtd"><svg t="1604159141726" class="icon" viewBox="0 0 1024 1024" version="1.1" xmlns="http://www.w3.org/2000/svg" p-id="29569" xmlns:xlink="http://www.w3.org/1999/xlink" width="200" height="200"><defs><style type="text/css"></style></defs><path d="M939.8 323.9c-14.3 0-25.8 11.6-25.8 25.8v529c0 21.8-17.8 39.5-39.7 39.5H94.9c-21.9 0-39.7-17.7-39.7-39.5V147.4c0-21.8 17.8-39.6 39.7-39.6h657.7c14.2 0 25.8-11.6 25.8-25.8s-11.6-25.8-25.8-25.8H64.4C30.8 56.2 3.6 83.4 3.6 117v792.1c0 33.6 27.2 60.8 60.8 60.8h845.8c30.6 0 55.5-24.8 55.5-55.5V349.7c-0.1-14.2-11.6-25.8-25.9-25.8z" fill="#FF9A3E" p-id="29570"></path><path d="M847 333.4L579 600.1l-2.1 1.6c-4.6 3.6-9.7 6.6-15.2 9-1.2 0.5-2.5 1-3.7 1.5-0.6 0.2-1.2 0.4-1.7 0.6-1.4 0.5-2.8 0.9-4.2 1.3-0.5 0.1-1.1 0.3-1.7 0.4-1.1 0.3-2.3 0.5-3.5 0.8-0.5 0.1-1 0.2-1.4 0.3-1.6 0.3-3.3 0.5-5 0.6-0.3 0-1.1 0.1-1.1 0.1h-0.2c-1.9 0.1-3.6 0.2-5.3 0.2-2 0-3.9-0.1-6.1-0.3-0.6 0-1.1-0.1-1.7-0.2-1.5-0.2-3.1-0.4-4.6-0.7-0.5-0.1-0.9-0.2-1.4-0.3-2.1-0.4-4-0.9-5.9-1.5h-0.2c-0.5-0.1-0.9-0.3-1.4-0.4-1-0.3-2-0.7-3-1-1.2-0.4-2.3-0.9-3.3-1.6l-13.7-8.7c-2.4-1.5-4.6-3.3-6.5-5.3l-1.5-1.5-107.2-107.4-191.9 191.8-4.1 2.6c-3.5 2.2-7.3 4.1-11.1 5.7-8.3 3.3-17.1 5-26 5-9.9 0-19.5-2.1-28.6-6.1-6.9-3.1-13.2-7.3-18.7-12.3v164.3c0 20.3 16.5 36.7 36.7 36.7h700.4c19.8 0 35.9-16.1 35.9-35.9V342.9c-0.1-12-14.5-18-23-9.5z" fill="#FF9A3E" p-id="29571"></path><path d="M548.9 495.6c-3.9 3.9-9.3 5.9-15 5.4-4.5-0.4-8.7-2.6-11.9-5.8L399.6 372.8l-4.4-4.4c-1.9-1.5-4-2.7-6.2-3.7-0.3-0.1-0.6-0.2-0.8-0.3-0.4-0.1-0.7-0.3-1.1-0.4-0.4-0.1-0.8-0.2-1.2-0.4-0.4-0.1-0.9-0.2-1.3-0.3-0.4-0.1-0.7-0.2-1.1-0.2-0.5-0.1-1.1-0.2-1.6-0.2-0.3 0-0.6-0.1-0.9-0.1-0.8-0.1-1.7-0.1-2.6-0.1-0.8 0-1.7 0.1-2.5 0.1-0.2 0-0.5 0.1-0.7 0.1l-1.8 0.3c-0.2 0-0.5 0.1-0.7 0.1-0.8 0.2-1.6 0.4-2.3 0.6h-0.1c-0.7 0.2-1.4 0.5-2.1 0.8-0.1 0-0.2 0.1-0.3 0.1-1.6 0.7-3.1 1.5-4.5 2.4l-7.4 7.4-226.3 226.1-6.3 6.3c-1.2 1.7-2.2 3.5-3 5.5-1.3 3.2-2 6.6-2 10.3 0 3.9 0.8 7.5 2.3 10.9 2.7 6.1 7.6 11.1 13.7 13.8 3.4 1.5 7.1 2.4 11 2.4 3.6 0 6.9-0.7 10-1.9 1.5-0.6 2.9-1.3 4.3-2.2l8.6-8.6 196.9-196.9c4.3-4.3 10.2-6.2 16.4-5.2 4 0.6 7.6 2.7 10.4 5.5l120 120 9.2 9.2c1.2 0.7 2.5 1.4 3.9 1.9 0.1 0.1 0.3 0.1 0.4 0.1 0.5 0.2 1.1 0.4 1.7 0.6 0.1 0 0.3 0.1 0.4 0.1 0.7 0.2 1.5 0.4 2.2 0.6 0.2 0 0.3 0.1 0.5 0.1 0.6 0.1 1.2 0.2 1.9 0.3 0.2 0 0.4 0 0.6 0.1 0.8 0.1 1.6 0.1 2.4 0.1 0.7 0 1.4 0 2-0.1h0.5c0.6-0.1 1.3-0.1 1.9-0.2 0.2 0 0.3-0.1 0.5-0.1 0.5-0.1 1-0.2 1.4-0.3 0.2 0 0.4-0.1 0.6-0.2 0.6-0.1 1.1-0.3 1.6-0.5 0.2-0.1 0.4-0.2 0.7-0.2 0.5-0.2 0.9-0.4 1.4-0.6 2.1-0.9 4.1-2.1 5.9-3.5l4.7-4.7L887.2 234l-39.3-35.8-299 297.4z" fill="#FF9A3E" p-id="29572"></path><path d="M791 156v-0.1c-3-2.5-6.5-4.3-10.4-5.1H132.5c-19.6 0-35.5 15.9-35.5 35.5v352c0 12.3 14.9 18.5 23.6 9.8l207-207 4.8-4.2c0.9-0.8 1.8-1.5 2.8-2.1l14.7-9.6 1.5-0.6 3.3-1.2 0.2-0.1 1.5-0.5c1.9-0.6 3.9-1.1 6-1.6 0.7-0.1 1.3-0.3 1.8-0.4 1.5-0.3 3.1-0.5 4.7-0.7 0.7-0.1 1.3-0.1 1.9-0.2 2.3-0.2 4.4-0.3 6.4-0.3 2.2 0 4.3 0.1 6.6 0.3 0.9 0.1 1.7 0.2 2.5 0.3 1.1 0.1 2.4 0.3 4 0.6l2.7 0.6c1.2 0.3 2.4 0.6 3.4 0.9 1 0.3 2 0.6 3.1 0.9 0.8 0.3 1.5 0.5 2.3 0.8 0.8 0.3 1.7 0.6 2.8 1.1l7.5 4.3c5.1 2.9 9.8 6.4 14.1 10.3l108.4 108.4 251.9-251.9 0.1-0.1 10.2-10.2c1.8-3.4 2.8-7.2 2.8-11.3 0-7.5-3.3-14.1-8.6-18.6z" fill="#FF9A3E" p-id="29573"></path><path d="M376.3 401.2m-46.9 0a46.9 46.9 0 1 0 93.8 0 46.9 46.9 0 1 0-93.8 0Z" fill="#E5394B" p-id="29574"></path><path d="M535.2 533.3m-46.9 0a46.9 46.9 0 1 0 93.8 0 46.9 46.9 0 1 0-93.8 0Z" fill="#E5394B" p-id="29575"></path><path d="M929 149.1m-95 0a95 95 0 1 0 190 0 95 95 0 1 0-190 0Z" fill="#E5394B" p-id="29576"></path></svg>