<?xml version="1.0" standalone="no"?><!DOCTYPE svg PUBLIC "-//W3C//DTD SVG 1.1//EN" "http://www.w3.org/Graphics/SVG/1.1/DTD/svg11.dtd"><svg t="1604160883316" class="icon" viewBox="0 0 1173 1024" version="1.1" xmlns="http://www.w3.org/2000/svg" p-id="4165" xmlns:xlink="http://www.w3.org/1999/xlink" width="229.1015625" height="200"><defs><style type="text/css"></style></defs><path d="M322.56 897.130667c178.154667 0 322.56-131.306667 322.56-293.290667 0-107.989333-107.52-309.269333-322.56-603.84C107.52 294.570667 0 495.850667 0 603.84c0 161.984 144.426667 293.290667 322.56 293.290667z" fill="#0082F1" p-id="4166"></path><path d="M120.661333 604.48a17.493333 17.493333 0 0 0 18.730667-16.256l1.109333-15.850667c3.093333-40.981333 6.869333-71.872 11.242667-92.416a411.456 411.456 0 0 1 26.581333-81.365333 17.557333 17.557333 0 0 0-8.746666-23.253333 17.557333 17.557333 0 0 0-23.253334 8.661333A446.272 446.272 0 0 0 117.333333 472.533333c-5.333333 25.088-9.642667 62.72-13.013333 113.216a17.621333 17.621333 0 0 0 16.341333 18.709334z m-6.357333 86.890667c12.544 3.84 25.813333-3.2 29.610667-15.68a23.701333 23.701333 0 0 0-15.786667-29.568c-12.544-3.84-25.813333 3.2-29.653333 15.68a23.701333 23.701333 0 0 0 15.829333 29.568z" fill="#FFFFFF" p-id="4167"></path><path d="M987.562667 1021.546667c97.706667 0 176.896-71.466667 176.896-159.616 0-58.773333-58.965333-168.32-176.896-328.597334C869.632 693.632 810.666667 803.157333 810.666667 861.930667c0 88.149333 79.189333 159.616 176.896 159.616z" fill="#0082F1" opacity=".876" p-id="4168"></path><path d="M876.949333 862.293333a9.493333 9.493333 0 0 0 10.218667-8.810666l0.576-8.64c1.621333-22.336 3.626667-39.168 5.973333-50.346667 3.157333-14.933333 8.405333-31.061333 14.442667-44.309333a9.6 9.6 0 0 0-4.821333-12.693334 9.6 9.6 0 0 0-12.736 4.693334c-6.613333 14.506667-12.288 31.936-15.701334 48.213333-2.88 13.653333-5.184 34.176-6.954666 61.674667a9.685333 9.685333 0 0 0 9.002666 10.24z m-3.477333 47.274667a12.949333 12.949333 0 0 0 16.213333-8.512 12.949333 12.949333 0 0 0-8.682666-16.106667 12.949333 12.949333 0 0 0-16.213334 8.490667 12.949333 12.949333 0 0 0 8.682667 16.128z" fill="#FFFFFF" p-id="4169"></path></svg>