<?xml version="1.0" standalone="no"?><!DOCTYPE svg PUBLIC "-//W3C//DTD SVG 1.1//EN" "http://www.w3.org/Graphics/SVG/1.1/DTD/svg11.dtd"><svg t="1604160636357" class="icon" viewBox="0 0 1024 1024" version="1.1" xmlns="http://www.w3.org/2000/svg" p-id="2333" xmlns:xlink="http://www.w3.org/1999/xlink" width="200" height="200"><defs><style type="text/css"></style></defs><path d="M917.33447111 873.35708445c0 62.57777778-51.2 113.77777778-113.77777778 113.77777777H220.43875555c-62.57777778 0-113.77777778-51.2-113.77777777-113.77777777V150.64291555c0-62.57777778 51.2-113.77777778 113.77777777-113.77777777h583.11793778c62.57777778 0 113.77777778 51.2 113.77777778 113.77777777v722.7141689z" fill="#d81e06" p-id="2334"></path><path d="M511.99772445 459.76348445c-109.33248 0-197.96309333 88.63175111-197.96309334 197.96309333s88.63175111 197.96309333 197.96309334 197.96309333 197.96309333-88.63175111 197.96309333-197.96309333-88.63061333-197.96309333-197.96309333-197.96309333z m1.13777777 295.23854222l-97.27544889-97.27544889 97.27544889-97.27544889 97.27544889 97.27544889-97.27544889 97.27544889z" fill="#F4DD50" p-id="2335"></path><path d="M316.41941333 931.3792h-67.33027555c-46.53624889 0-84.39694222-48.49322667-84.39694223-108.09799111v-91.03132444c0-9.42535111 7.64131555-17.06666667 17.06666667-17.06666667 9.42535111 0 17.06666667 7.64131555 17.06666667 17.06666667v91.03132444c0 40.09301333 23.01724445 73.96465778 50.26360889 73.96465778h67.33027555c9.42535111 0 17.06666667 7.64131555 17.06666667 17.06666666s-7.64131555 17.06666667-17.06666667 17.06666667zM458.06478222 931.3792h-51.19658667c-9.42535111 0-17.06666667-7.64131555-17.06666666-17.06666667s7.64131555-17.06666667 17.06666666-17.06666666h51.19658667c9.42535111 0 17.06666667 7.64131555 17.06666667 17.06666666s-7.64017778 17.06666667-17.06666667 17.06666667z" fill="#FFFFFF" p-id="2336"></path><path d="M803.55555555 1004.20152889H220.43875555c-72.14762667 0-130.84444445-58.69681778-130.84444444-130.84444444V150.64291555c0-72.14762667 58.69681778-130.84444445 130.84444444-130.84444444H803.55555555c72.14762667 0 130.84444445 58.69681778 130.84444445 130.84444444v286.79168c0 9.42535111-7.64131555 17.06666667-17.06666667 17.06666667-9.42535111 0-17.06666667-7.64131555-17.06666666-17.06666667V150.64291555c0-53.32650667-43.38460445-96.71111111-96.71111112-96.7111111H220.43875555c-53.32650667 0-96.71111111 43.38460445-96.7111111 96.7111111v722.7141689c0 53.32650667 43.38460445 96.71111111 96.7111111 96.7111111H803.55555555c53.32650667 0 96.71111111-43.38460445 96.71111112-96.7111111V722.43313778c0-9.42535111 7.64131555-17.06666667 17.06666666-17.06666667 9.42535111 0 17.06666667 7.64131555 17.06666667 17.06666667v150.92394667c0.00113778 72.14762667-58.69568 130.84444445-130.84444445 130.84444444z" fill="#3D100B" p-id="2337"></path><path d="M917.33447111 659.29102222c-9.42535111 0-17.06666667-7.64131555-17.06666666-17.06666667v-98.98211555c0-9.42535111 7.64131555-17.06666667 17.06666666-17.06666667s17.06666667 7.64131555 17.06666667 17.06666667v98.98211555c0 9.42535111-7.64131555 17.06666667-17.06666667 17.06666667zM554.09777778 409.70922667c-90.60693333 0-177.24188445-8.53674667-257.49731556-25.37358222-77.06965333-16.16782222-145.57752889-39.88138667-198.11783111-68.57728-8.27278222-4.51811555-11.3152-14.88668445-6.79822222-23.1583289 4.51811555-8.27164445 14.88668445-11.3152 23.15946666-6.79822222C217.76839111 342.016 381.97475555 375.57589333 554.09777778 375.57589333c177.85287111 0 252.78464-33.91715555 355.05834667-89.77749333 8.27278222-4.51697778 18.64135111-1.47342222 23.15946666 6.79822222 4.51811555 8.27278222 1.47456 18.64021333-6.79708444 23.15832889C821.60867555 372.50844445 739.61927111 409.70922667 554.09777778 409.70922667z" fill="#3D100B" p-id="2338"></path></svg>