<?xml version="1.0" standalone="no"?><!DOCTYPE svg PUBLIC "-//W3C//DTD SVG 1.1//EN" "http://www.w3.org/Graphics/SVG/1.1/DTD/svg11.dtd"><svg t="1604321465951" class="icon" viewBox="0 0 1024 1024" version="1.1" xmlns="http://www.w3.org/2000/svg" p-id="11993" xmlns:xlink="http://www.w3.org/1999/xlink" width="200" height="200"><defs><style type="text/css"></style></defs><path d="M415.744 134.144c-61.44 26.624-126.976 51.2-192.512 82.944L71.68 712.704l125.952 41.984L299.008 455.68l-5.12 399.36c151.552 45.056 303.104 48.128 454.656 0l-14.336-385.024 86.016 276.48 137.216-41.984-153.6-489.472-175.104-78.848L522.24 291.84 415.744 134.144z" fill="#BCE2EC" p-id="11994"></path><path d="M521.216 919.552h-16.384c-88.064-1.024-172.032-14.336-227.328-36.864-6.144-3.072-10.24-9.216-10.24-16.384 5.12-59.392 6.144-152.576 7.168-237.568l1.024-55.296-1.024 3.072c-4.096 14.336-9.216 29.696-14.336 44.032l-21.504 57.344-26.624 89.088c-2.048 6.144-8.192 11.264-14.336 11.264-2.048 0-4.096 0-6.144-1.024L62.464 734.208c-8.192-3.072-13.312-12.288-10.24-20.48 3.072-9.216 9.216-29.696 18.432-57.344l9.216-27.648 2.048-22.528C102.4 474.112 203.776 240.64 210.944 210.944c1.024-5.12 6.144-10.24 11.264-11.264 75.776-21.504 118.784-46.08 174.08-81.92 2.048-1.024 4.096-2.048 6.144-2.048h4.096l1.024-1.024h6.144c69.632 16.384 139.264 13.312 209.92 0h6.144l2.048 1.024 5.12 2.048c56.32 36.864 99.328 59.392 154.624 78.848 5.12 2.048 8.192 6.144 10.24 10.24 8.192 29.696 102.4 242.688 133.12 379.904l4.096 22.528 1.024 1.024c1.024 2.048 2.048 3.072 3.072 6.144 1.024 2.048 1.024 4.096 1.024 6.144v1.024l7.168 19.456c10.24 29.696 17.408 51.2 20.48 61.44 3.072 8.192-2.048 18.432-11.264 20.48L824.32 763.904c-8.192 2.048-17.408-2.048-19.456-11.264l-28.672-95.232-12.288-23.552c-4.096-7.168-7.168-15.36-10.24-22.528l-3.072-9.216 1.024 21.504c4.096 86.016 8.192 182.272 13.312 242.688 1.024 7.168-4.096 14.336-10.24 16.384-65.536 24.576-150.528 35.84-233.472 36.864z m-12.288-32.768l52.224-1.024c55.296-3.072 109.568-10.24 156.672-24.576l14.336-5.12-1.024-11.264c-9.216-120.832-16.384-334.848-18.432-395.264v-10.24l2.048-36.864c3.072-37.888 10.24-69.632 18.432-97.28 5.12-18.432 12.288-34.816 19.456-50.176l16.384-30.72-28.672-11.264c-13.312-6.144-26.624-11.264-38.912-18.432l-21.504-11.264L647.168 307.2c-2.048 7.168-8.192 12.288-15.36 12.288-4.096 0-8.192-1.024-11.264-5.12l-53.248-54.272-33.792 53.248-22.528 54.272v520.192l-2.048-1.024z m-32.768-1.024V361.472c0-2.048 0-4.096 1.024-6.144l20.48-50.176-29.696-45.056-55.296 56.32c-3.072 3.072-7.168 5.12-11.264 5.12-7.168 0-13.312-4.096-15.36-12.288l-33.792-129.024-32.768 17.408c-18.432 8.192-37.888 16.384-60.416 23.552h-1.024l14.336 28.672c7.168 16.384 13.312 33.792 19.456 53.248 11.264 38.912 18.432 86.016 20.48 145.408 0 2.048 0 4.096-1.024 6.144v3.072c-4.096 60.416-2.048 266.24-9.216 386.048l-1.024 11.264 10.24 3.072c38.912 12.288 88.064 20.48 141.312 24.576l23.552 3.072z m52.224-24.576c-9.216 0-16.384-8.192-15.36-16.384v-7.168c0-9.216 8.192-16.384 16.384-15.36 9.216 0 16.384 7.168 15.36 16.384v7.168c0 9.216-7.168 15.36-16.384 15.36zM186.368 742.4l18.432-59.392-99.328-28.672-4.096 12.288-4.096 13.312 3.072-5.12c4.096-4.096 11.264-6.144 17.408-4.096l7.168 2.048c8.192 3.072 12.288 12.288 9.216 20.48-2.048 7.168-9.216 11.264-16.384 10.24-2.048 0-3.072 0-5.12-1.024l-7.168-2.048c-6.144-2.048-10.24-8.192-10.24-14.336l1.024-5.12-3.072 10.24-5.12 17.408 98.304 33.792z m645.12-14.336l104.448-29.696-6.144-18.432-3.072-8.192v1.024c0 6.144-4.096 12.288-10.24 14.336l-7.168 2.048c-2.048 1.024-3.072 1.024-5.12 1.024-7.168 0-13.312-4.096-16.384-10.24-3.072-8.192 1.024-17.408 9.216-20.48l7.168-2.048c6.144-2.048 13.312 0 17.408 4.096l1.024 2.048-3.072-10.24-4.096-12.288-102.4 29.696 18.432 57.344z m-303.104-29.696c-9.216 0-16.384-7.168-15.36-16.384v-7.168c0-9.216 8.192-16.384 16.384-15.36 9.216 0 16.384 7.168 15.36 16.384v7.168c0 8.192-7.168 15.36-16.384 15.36z m-313.344-46.08l15.36-41.984c19.456-57.344 33.792-114.688 49.152-173.056l-2.048-27.648c-3.072-37.888-9.216-69.632-17.408-97.28-5.12-18.432-11.264-33.792-17.408-49.152l-9.216-19.456L229.376 256c-29.696 78.848-100.352 251.904-115.712 355.328l-1.024 11.264 102.4 29.696z m588.8-13.312l103.424-29.696-3.072-14.336c-23.552-101.376-81.92-247.808-113.664-326.656l-4.096-11.264-5.12 9.216c-6.144 14.336-12.288 29.696-17.408 46.08-8.192 25.6-13.312 55.296-16.384 91.136l-2.048 34.816 10.24 53.248c8.192 40.96 17.408 78.848 32.768 114.688l15.36 32.768z m-275.456-88.064c-9.216 0-16.384-7.168-15.36-16.384v-7.168c0-9.216 8.192-16.384 16.384-15.36 9.216 0 16.384 8.192 15.36 16.384v7.168c0 8.192-7.168 15.36-16.384 15.36z m61.44-23.552c-7.168 0-14.336-3.072-19.456-7.168-8.192-7.168-12.288-17.408-12.288-27.648v-94.208c0-9.216 7.168-16.384 16.384-16.384h100.352c9.216 0 16.384 7.168 16.384 16.384v94.208c0 11.264-4.096 21.504-12.288 27.648-5.12 4.096-12.288 7.168-19.456 7.168h-69.632z m-232.448-1.024c-7.168 0-14.336-3.072-19.456-7.168-8.192-7.168-12.288-17.408-12.288-27.648v-94.208c0-9.216 7.168-16.384 16.384-16.384h100.352c9.216 0 16.384 7.168 16.384 16.384v94.208c0 11.264-4.096 21.504-12.288 27.648-5.12 4.096-12.288 7.168-19.456 7.168h-69.632z m301.056-31.744v-80.896h-68.608v79.872l68.608 1.024z m-232.448 0v-80.896h-68.608v79.872l68.608 1.024z m102.4-97.28c-9.216 0-16.384-8.192-15.36-16.384v-7.168c0-9.216 8.192-16.384 16.384-15.36 9.216 0 16.384 7.168 15.36 16.384v7.168c0 8.192-7.168 15.36-16.384 15.36z m-12.288-123.904l78.848-121.856-24.576 3.072c-19.456 2.048-38.912 3.072-59.392 3.072a446.592 446.592 0 0 1-52.224-3.072l-21.504-4.096 78.848 122.88z m-105.472 0l39.936-40.96-51.2-78.848-17.408 10.24 28.672 109.568z m211.968-5.12l26.624-104.448-16.384-10.24-49.152 75.776 38.912 38.912z" fill="#55545F" p-id="11995"></path></svg>