<?xml version="1.0" standalone="no"?><!DOCTYPE svg PUBLIC "-//W3C//DTD SVG 1.1//EN" "http://www.w3.org/Graphics/SVG/1.1/DTD/svg11.dtd"><svg t="1604158336814" class="icon" viewBox="0 0 1058 1024" version="1.1" xmlns="http://www.w3.org/2000/svg" p-id="2193" xmlns:xlink="http://www.w3.org/1999/xlink" width="206.640625" height="200"><defs><style type="text/css"></style></defs><path d="M270.369107 9.867363S175.24389 44.754779 160.709242 51.819641c-14.534647 6.649281-15.365807 26.17089-27.83321 70.201067-12.467403 43.614598-119.218207 427.429451-121.701031 441.964099-2.909061 14.534647-3.324641 24.092989 15.781388 32.393935s70.201068 30.742271 77.670853 33.651332c7.45913 3.324641 19.947844 2.909061 29.911111-19.521609 9.973922-22.015089 95.125217-223.47553 95.125217-223.47553v120.464947s3.313985 52.331124-22.856905 103.841744S61.428224 867.198435 61.428224 867.198435s2.13118 12.872327 22.015089 22.846249 38.222712 22.846249 66.471503 22.37739 93.452241-18.274868 120.869871-12.051823 42.783438 29.911111 98.439202 38.222712 116.309146 10.378846 149.960478-2.90906c34.098879-13.287907 80.164334-41.558009 107.624587-34.09888 27.00205 7.45913 81.826654 18.264212 113.80501 8.300946s81.42173-31.147195 76.434769-39.043216-157.888467-234.994558-164.953329-313.922808-7.054206-168.17141-7.054205-168.17141 94.709637 210.592547 100.527758 222.64437 14.91826 22.430669 31.967699 14.91826 74.346213-30.742271 80.164334-34.887416 12.882983-5.402541 6.233702-32.404591S742.23366 115.371427 727.699013 77.99053 610.153783 8.205043 610.153783 8.205043s-84.330791 241.334818-168.235346 245.906199S272.031427 31.882452 270.369107 9.867363z m0 0" fill="#FFA9A9" p-id="2194"></path><path d="M229.24799 456.402843h415.377629v99.685942H229.24799z" fill="#FF8383" p-id="2195"></path><path d="M438.178216 951.529226c-79.34383 0-102.179423-12.041167-124.610091-23.666754-11.220662-5.818121-22.015089-11.636243-41.121118-14.918259-24.508569-4.571381-44.861338-0.41558-66.460846 3.74022-22.430669 4.155801-45.692498 8.727182-72.694549 2.493481-34.098879-7.896022-56.071345-21.183929-68.538747-30.742271a25.574159 25.574159 0 0 1-6.233701-32.809515c28.259446-46.949894 122.542847-203.527686 141.233295-249.23084 20.768349-51.9262 21.183929-99.685942 21.183929-100.165458V215.483605a8.311602 8.311602 0 1 1 16.612548 0v290.756881c0 2.13118-0.41558 51.148319-22.37739 106.34588-18.690448 46.939238-113.80501 204.358846-142.064456 251.713664a8.332914 8.332914 0 0 0 2.13118 10.805083c11.210007 8.716526 31.157851 20.352769 62.305046 27.83321 23.261829 5.391885 44.030178 1.66232 65.629687-2.504137 22.015089-4.145145 45.276918-8.716526 72.694548-3.729565 21.599509 4.155801 34.098879 10.378846 46.097423 16.612548 20.352769 10.805082 41.558009 22.015089 116.735382 22.015089a8.332914 8.332914 0 0 1 8.300946 8.311602c0 4.571381-4.155801 7.885366-8.727182 7.885366z m0 0" fill="#511515" p-id="2196"></path><path d="M437.315089 27.726651c-44.861338 0-168.64027-18.690448-168.64027-18.690448s56.103312 206.862982 168.64027 246.321779c0 0 117.555886-40.705537 164.100856-243.828298 0 0.41558-75.656888 16.196968-164.100856 16.196967z m0 0" fill="#FFDCDC" p-id="2197"></path><path d="M110.860943 639.57776a28.845521 28.845521 0 0 1-9.973922-2.067245l-85.982455-37.775164A25.009397 25.009397 0 0 1 0.785499 570.666056c19.521608-77.265929 114.646826-424.520391 123.363351-449.44454 1.672976-4.986961 3.335297-9.59031 4.571381-14.534648 7.064862-22.430669 14.119067-46.118734 39.874377-60.653381 23.261829-13.287907 75.603609-38.212057 94.709637-44.861338a11.966575 11.966575 0 0 1 9.973923 0.83116 12.936262 12.936262 0 0 1 6.233701 8.311602c31.978355 141.190672 132.495458 236.710157 158.250767 236.710157a8.311602 8.311602 0 1 1 0 16.623204c-39.043217 0-139.986555-105.493408-173.62723-245.085695-19.937188 7.885366-65.214107 29.069295-87.644776 41.941622-19.937188 11.636243-25.744654 29.911111-32.393935 51.148319-1.66232 4.986961-2.909061 9.973922-4.986961 14.918259-8.684558 24.934805-103.426163 370.953183-122.947772 448.208456-0.83116 4.155801 0.83116 7.896022 4.560725 9.59031l85.982455 37.743197c4.155801 1.66232 9.142762 0 10.805083-4.145145l103.010583-236.774093a8.183731 8.183731 0 1 1 14.91826 6.649282l-102.978616 236.784749c-2.909061 9.142762-12.051823 14.91826-21.599509 14.918259z m325.665609 311.951466a8.311602 8.311602 0 1 1 0-16.612548c75.592953 0 96.776882-11.220662 117.12965-22.015089 12.051823-6.223045 24.508569-12.872327 46.108079-16.612548 27.406974-4.986961 50.668803-0.41558 72.683892 3.740221 21.599509 4.145145 42.378513 7.885366 65.640342 2.482825 31.147195-7.054206 50.668803-19.095372 61.889466-27.406974a8.322258 8.322258 0 0 0 2.077901-10.805083c-28.66437-47.354819-123.789588-204.774426-142.480036-251.713664-22.015089-54.83526-23.261829-103.852399-23.261829-105.919644V215.899185a8.311602 8.311602 0 1 1 16.612548 0v290.767537c0 0.404924 1.24674 48.175323 22.025744 100.101523 18.274868 45.692498 112.952538 202.291601 141.233296 249.220183a25.126612 25.126612 0 0 1-5.818121 32.820172c-12.467403 9.59031-34.482492 22.846249-68.538748 30.74227-27.00205 6.223045-49.858955 1.66232-72.694548-2.49348-21.610165-4.155801-41.962933-7.896022-66.460847-3.740221-19.116684 3.324641-29.911111 9.142762-41.558009 14.91826-22.015089 11.220662-45.276918 23.261829-124.610092 23.261829z m0 0" fill="#511515" p-id="2198"></path><path d="M764.259405 639.57776a24.764311 24.764311 0 0 1-22.856905-14.91826L638.391917 387.448516c-1.66232-4.155801 0-9.142762 4.155801-10.794427s9.142762 0 10.794427 4.145145l103.021239 236.763437c1.651664 4.166457 6.649281 5.818121 10.794426 4.166457l85.993111-37.807133a7.927989 7.927989 0 0 0 4.560725-9.590309c-19.521608-76.807726-114.231246-423.209715-122.958427-448.155177l-4.976305-14.91826c-6.649281-21.183929-12.467403-39.885033-32.393936-51.095039-22.025745-12.882983-67.707587-34.098879-87.655431-41.962933-33.640676 139.592287-134.584014 245.085695-173.627231 245.085694a8.311602 8.311602 0 0 1 0-16.612547c26.17089 0 126.283068-95.530141 158.261423-236.763437a12.584618 12.584618 0 0 1 6.233702-8.311602 11.945264 11.945264 0 0 1 9.963266-0.83116c19.116684 6.649281 71.394528 31.573431 94.709637 44.861338 25.75531 14.545303 32.820171 38.212057 39.874377 60.642725 1.66232 4.571381 2.909061 9.59031 4.571381 14.545304 8.727182 25.33973 103.841743 372.178611 123.363352 449.433884a25.009397 25.009397 0 0 1-14.119067 29.079951l-85.982456 37.753852c-2.13118 1.66232-5.402541 2.493481-8.716526 2.493481z m0 0" fill="#511515" p-id="2199"></path><path d="M437.315089 36.038253c-103.010583 0-162.832804-18.285524-165.315629-19.116684-4.571381-1.236084-6.649281-5.807465-5.402542-10.378847S272.83062-0.095903 276.986421 1.140181c0.404924 0 60.227145 18.285524 160.328668 18.285524 100.527758 0 161.586064-15.376463 161.969676-15.792043a8.002581 8.002581 0 0 1 9.963266 5.818121c0.841816 4.155801-1.66232 9.142762-5.807465 9.973922-2.429545 1.236084-63.498507 16.612548-166.125477 16.612548zM636.314017 464.703789H233.403791a6.233701 6.233701 0 1 1 0-12.456747h402.910226a6.233701 6.233701 0 1 1 0 12.456747z m8.311602 99.696598H229.24799a6.233701 6.233701 0 0 1 0-12.467403h415.377629a6.233701 6.233701 0 0 1 0 12.467403z m0 0" fill="#511515" p-id="2200"></path><path d="M416.173783 506.666722a20.352769 20.352769 0 1 0 20.352769-20.352768 20.342113 20.342113 0 0 0-20.352769 20.352768z m0 0" fill="#FFC0C0" p-id="2201"></path></svg>