<?xml version="1.0" standalone="no"?><!DOCTYPE svg PUBLIC "-//W3C//DTD SVG 1.1//EN" "http://www.w3.org/Graphics/SVG/1.1/DTD/svg11.dtd"><svg t="1604160481290" class="icon" viewBox="0 0 1235 1024" version="1.1" xmlns="http://www.w3.org/2000/svg" p-id="1297" xmlns:xlink="http://www.w3.org/1999/xlink" width="241.2109375" height="200"><defs><style type="text/css"></style></defs><path d="M18.746931 0h1024v1024H18.746931z" fill="#FFFFFF" fill-opacity="0" p-id="1298"></path><path d="M429.07457 611.519763c-77.554167-89.317661-123.092228-161.081036-67.97359-209.014241 5.184426-4.517424 7.579571-6.609386 10.399171-9.18644 3.911058-3.577557 7.124796-6.730659 9.732169-9.550259C339.605318 316.401599 311.106132 274.107594 295.401261 256.189489c-8.094981-9.18644-27.741229-8.974212-35.442072-2.395144-20.404204 17.493649-27.134863 23.345078-48.38798 42.142413C135.229774 362.303479 176.614229 555.461258 319.019204 719.45285c142.314019 163.900637 327.86191 231.783272 404.779393 164.870821a1436.722783 1436.722783 0 0 0 47.266202-41.111591c8.82262-8.1253 11.520947-25.831177 2.789282-36.351621-14.552776-17.372376-50.934715-50.025167-114.027061-102.415159-55.118638 47.902887-153.258919-3.759467-230.75245-92.986173z" fill="#FFDE7B" p-id="1299"></path><path d="M475.795044 281.990348c21.313753 27.316773 11.975722 55.906913-10.42949 82.071591-5.82111 6.670022-12.066677 12.976225-18.645743 18.88829-3.911058 3.547239-7.882754 7.033842-11.854449 10.490126l-32.440563 28.25664c-4.24456 3.638194 19.100518 59.727017 68.034227 116.119023 48.90339 56.301051 101.17211 87.256018 105.446987 83.526869l32.440563-28.196003c17.857469-15.522961 27.225818-22.981258 39.929178-30.075737 26.376906-14.855959 54.269726-17.372376 76.007935 5.002517 72.005922 59.545107 112.571784 95.805774 132.096758 119.090215 38.019127 45.477424 28.014093 110.661732-9.944397 145.618712-13.158135 12.127313-29.83319 26.589134-49.449119 43.021643-118.938623 103.445981-348.811843 19.343064-516.047491-173.178031C113.703793 510.014152 62.405258 270.590674 181.161972 167.387239c21.313753-18.857972 28.347594-24.951947 49.0853-42.688142C268.812127 91.652169 337.816539 90.833575 376.654259 134.916358c20.373886 23.254123 52.238401 70.641599 99.140785 147.043672V281.96003z m184.517069 370.974508l-32.440563 28.196003c-55.08832 47.902887-139.706647-2.12228-217.230496-91.348986-77.554167-89.287343-115.300429-180.0906-60.181791-227.993487l32.379926-28.165684c5.214745-4.517424 7.640207-6.609386 10.429489-9.18644 3.911058-3.577557 7.094478-6.730659 9.70185-9.550259C361.404163 247.51846 332.904977 205.254774 317.200107 187.366987c-8.1253-9.18644-27.741229-8.974212-35.472391-2.395144-20.373886 17.493649-27.104545 23.345078-48.357661 42.112095-76.341436 66.397039-34.987298 259.585137 107.447994 423.54641 142.314019 163.930955 327.86191 231.81359 404.779393 164.931458a1436.722783 1436.722783 0 0 0 47.266203-41.14191c8.82262-8.1253 11.520947-25.861495 2.758963-36.381939-14.552776-17.372376-50.934715-50.025167-113.996743-102.384841-7.397661 5.426973-14.492139 11.217765-21.283434 17.342058z" fill="#000000" p-id="1300"></path><path d="M797.229477 339.200947h76.947802c20.373886 0 30.560829 10.186943 30.560829 30.560829 0 20.010067-10.186943 30.0151-30.560829 30.0151h-76.947802v63.304575c0 14.188956-2.001007 23.648261-6.00302 28.377912-4.002013 4.729652-12.733679 7.094478-26.194996 7.094479-11.642221 0-20.010067-2.364826-25.103538-7.094479-5.093472-4.729652-7.640207-14.188956-7.640207-28.377912v-63.304575h-75.856344c-20.373886 0-30.560829-10.005033-30.560829-30.0151 0-20.373886 9.823124-30.560829 29.469371-30.560829h76.947802V311.368764h-75.856344c-20.373886 0-30.560829-10.005033-30.560829-30.0151 0-20.373886 9.823124-30.560829 29.469371-30.560829h43.112598a54217.123908 54217.123908 0 0 0-66.578949-108.600089c-5.82111-9.459304-7.913072-17.82715-6.275884-25.103538 1.637187-7.276388 6.063657-13.461318 13.340044-18.554789 8.398164-5.82111 16.129326-8.185936 23.223805-7.094478 7.094478 1.091458 13.916092 7.094478 20.464841 18.00906l82.950821 138.615188c13.461318-22.920622 26.922635-45.780607 40.383953-68.519319 13.461318-22.738712 26.922635-45.538061 40.383952-68.458682a65.487491 65.487491 0 0 1 11.187447-14.461821 20.646751 20.646751 0 0 1 10.611399-5.457291c3.638194-0.545729 7.276388 0 10.914582 1.637188s7.488616 3.729149 11.490629 6.275884c9.095485 5.82111 14.007047 11.915085 14.734685 18.281925 0.727639 6.366839-1.819097 14.643731-7.640207 24.830673l-65.487491 108.600089h42.02114c20.373886 0 30.560829 10.186943 30.560829 30.560829 0 20.010067-10.186943 30.0151-30.560829 30.0151h-76.947802v27.832183z" fill="#000000" p-id="1301"></path></svg>