<?xml version="1.0" standalone="no"?><!DOCTYPE svg PUBLIC "-//W3C//DTD SVG 1.1//EN" "http://www.w3.org/Graphics/SVG/1.1/DTD/svg11.dtd"><svg t="1604158630066" class="icon" viewBox="0 0 1024 1024" version="1.1" xmlns="http://www.w3.org/2000/svg" p-id="5318" xmlns:xlink="http://www.w3.org/1999/xlink" width="200" height="200"><defs><style type="text/css"></style></defs><path d="M725.333 648.533H435.2c-17.067 0-34.133-12.8-34.133-29.866L358.4 392.533c-4.267-25.6 8.533-46.933 34.133-46.933H768c21.333 0 34.133 21.333 29.867 51.2l-38.4 221.867c0 17.066-17.067 29.866-34.134 29.866z" fill="#F5CB2B" p-id="5319"></path><path d="M806.4 733.867H362.667c-29.867 0-51.2-21.334-59.734-46.934L230.4 332.8 192 179.2s-4.267 0-4.267-4.267c-4.266 0-8.533-4.266-29.866-4.266-12.8 0-29.867-4.267-42.667-4.267-12.8 4.267-29.867-12.8-29.867-25.6 0-17.067 12.8-29.867 29.867-29.867s34.133 0 51.2 4.267c21.333 0 34.133 4.267 46.933 12.8 8.534 4.267 17.067 8.533 21.334 17.067 4.266 4.266 4.266 8.533 8.533 12.8L285.867 320 358.4 674.133l448 4.267 72.533-354.133v-12.8H337.067c-17.067 0-29.867-12.8-29.867-29.867s12.8-29.867 29.867-29.867H883.2c17.067 0 29.867 8.534 42.667 21.334 12.8 12.8 17.066 38.4 12.8 59.733l-72.534 349.867c-8.533 29.866-34.133 51.2-59.733 51.2z m-443.733 179.2c-42.667 0-72.534-34.134-72.534-72.534 0-42.666 34.134-72.533 72.534-72.533 42.666 0 72.533 34.133 72.533 72.533s-34.133 72.534-72.533 72.534z m0-93.867c-8.534 0-17.067 8.533-17.067 17.067s8.533 17.066 17.067 17.066 17.066-8.533 17.066-17.066S371.2 819.2 362.667 819.2z m426.666 93.867c-42.666 0-72.533-34.134-72.533-72.534 0-42.666 34.133-72.533 72.533-72.533 42.667 0 72.534 34.133 72.534 72.533 4.266 42.667-29.867 72.534-72.534 72.534z m0-89.6c-8.533 0-17.066 8.533-17.066 17.066S780.8 857.6 789.333 857.6s17.067-8.533 17.067-17.067-8.533-17.066-17.067-17.066z" fill="#6A3906" p-id="5320"></path><path d="M729.6 512H448c-17.067 0-25.6-12.8-25.6-25.6v-4.267c0-17.066 12.8-25.6 25.6-25.6h281.6c17.067 0 25.6 12.8 25.6 25.6v4.267c0 12.8-12.8 25.6-25.6 25.6z" fill="#6A3906" p-id="5321"></path></svg>