<?xml version="1.0" standalone="no"?><!DOCTYPE svg PUBLIC "-//W3C//DTD SVG 1.1//EN" "http://www.w3.org/Graphics/SVG/1.1/DTD/svg11.dtd"><svg t="1604158756849" class="icon" viewBox="0 0 1086 1024" version="1.1" xmlns="http://www.w3.org/2000/svg" p-id="6373" xmlns:xlink="http://www.w3.org/1999/xlink" width="212.109375" height="200"><defs><style type="text/css"></style></defs><path d="M510.8 239.1c-13.2 0-26.2 0.7-39 2.2 175.3 19.4 311.6 168 311.6 348.4s-136.3 329-311.6 348.4c12.8 1.4 25.8 2.2 39 2.2 193.6 0 350.6-157 350.6-350.6s-157-350.6-350.6-350.6z" fill="#FF912E" p-id="6374"></path><path d="M160.2 589.7a348.4 311.6 90 1 0 623.2 0 348.4 311.6 90 1 0-623.2 0Z" fill="#FFBA76" p-id="6375"></path><path d="M481.7 1000.4c-56.9 0-112-11.1-164-33.1-50.2-21.2-95.2-51.6-133.9-90.2-38.7-38.7-69-83.7-90.2-133.9-22-51.9-33.1-107.1-33.1-164 0-36.6 4.7-73.1 14.1-108.5l6.1-23.2 23.9 0.9c118.7 4.3 229.7 53.7 312.4 139.3 82.9 85.8 128.6 198.7 128.7 318.1 0 22.8-1.7 45.7-5 68l-3.6 23.8-24 1.7c-10.7 0.7-21.3 1.1-31.4 1.1zM127.1 510c-4.4 22.8-6.6 45.9-6.6 69.2 0 199.2 162 361.2 361.2 361.2h2.6c1-11.5 1.5-23 1.5-34.6-0.1-206.9-155.7-376.2-358.7-395.8z" fill="#030003" p-id="6376"></path><path d="M475.8 1001.9l5.6-37.1c2.9-19.4 4.4-39.2 4.4-59.1 0-215.2-168.4-389.7-383.3-397.4L64.9 507l9.6-36.3c4.1-15.5 9.2-31 15.3-46.3 6.1-15.4 23.5-23 38.9-16.9 15.4 6.1 23 23.5 16.9 38.9-0.7 1.7-1.3 3.4-1.9 5C247.6 464 343.5 511.5 417.1 587.6c82.9 85.8 128.6 198.7 128.6 318.1 0 9.7-0.3 19.4-0.9 29.1C703.6 906.6 826.4 773.4 841.3 612.2h-2c-114.9 0-224.8-42.8-309.4-120.4-75.6-69.5-125.3-161.3-142-261.5-41.3 11.1-80 29.3-115.2 54.3-13.5 9.6-32.2 6.4-41.8-7.1-9.6-13.5-6.4-32.2 7.1-41.8 51.1-36.3 108.4-60.3 170.2-71.3l32.1-5.7 3 32.5c18.8 205.8 189.1 361 396 361 10.9 0 21.3-0.4 31.1-1.2l32.6-2.7-0.1 32.7c-0.5 106.6-40.8 208.2-113.7 286-72.6 77.4-170.5 124.3-276 132.1l-37.4 2.8z" fill="#030003" p-id="6377"></path><path d="M839.4 612.1c-114.9 0-224.8-42.8-309.4-120.4-84.1-77.2-136.1-182-146.4-295.2l-2.5-27.5 27.2-4.8c23.9-4.2 48.6-6.4 73.4-6.4 56.8 0 112 11.1 163.9 33.1 50.2 21.2 95.2 51.6 133.9 90.3 38.7 38.7 69 83.7 90.3 133.8 22 51.9 33.1 107.1 33.1 163.9v29.4l-27.6 2.3c-11.3 1-23.4 1.5-35.9 1.5zM447 219.5C478.1 411 642.1 552.1 839.4 552.1h2.5c-13.8-186.6-170.1-334.2-360.2-334.2-11.6 0-23.2 0.5-34.7 1.6z" fill="#030003" p-id="6378"></path><path d="M274 471.2c-2.5 0-5.1-0.5-7.6-1.5-10.2-4.2-15.1-15.9-10.9-26.1 39-94.4 103.5-107.8 106.2-108.3l7.5 39.3 0.3-0.1c-1.9 0.4-46.9 11.2-77.1 84.3-3.1 7.7-10.6 12.4-18.4 12.4zM492.9 323.5c-8.4 0-16.3-5.4-19-13.9-3.4-10.5 2.4-21.8 12.9-25.2l26.6-8.6c10.5-3.4 21.8 2.4 25.2 12.9 3.4 10.5-2.4 21.8-12.9 25.2l-26.6 8.6c-2.1 0.7-4.2 1-6.2 1z" fill="#FFFFFF" p-id="6379"></path><path d="M968.9 307.3m-27.9 0a27.9 27.9 0 1 0 55.8 0 27.9 27.9 0 1 0-55.8 0Z" fill="#FBB657" p-id="6380"></path><path d="M197.7 336.6c-6.6 0-13.3-2.2-18.8-6.6-12.9-10.4-14.9-29.3-4.5-42.2l2.5-3.1c10.4-12.9 29.3-14.9 42.2-4.5 12.9 10.4 14.9 29.3 4.5 42.2l-2.5 3.1c-6 7.3-14.7 11.1-23.4 11.1z" fill="#030003" p-id="6381"></path><path d="M1026.2 527.8c-33.2 0-60.2-27-60.2-60.2s27-60.2 60.2-60.2 60.2 27 60.2 60.2-27 60.2-60.2 60.2z m0-90.4c-16.7 0-30.2 13.5-30.2 30.2s13.5 30.2 30.2 30.2 30.2-13.5 30.2-30.2-13.5-30.2-30.2-30.2z" fill="#59B2F8" p-id="6382"></path><path d="M96.7 226.9c-20.5 0-37.1-16.6-37.1-37.1s16.6-37.1 37.1-37.1 37.1 16.6 37.1 37.1-16.6 37.1-37.1 37.1z m0-54.2c-9.4 0-17.1 7.7-17.1 17.1 0 9.4 7.7 17.1 17.1 17.1s17.1-7.7 17.1-17.1c0-9.4-7.7-17.1-17.1-17.1zM1015 128.5h-28.1v-28.1c0-5.8-4.7-10.5-10.5-10.5s-10.5 4.7-10.5 10.5v28.1h-28.1c-5.8 0-10.5 4.7-10.5 10.5s4.7 10.5 10.5 10.5h28.1v28.1c0 5.8 4.7 10.5 10.5 10.5s10.5-4.7 10.5-10.5v-28.1h28.1c5.8 0 10.5-4.7 10.5-10.5s-4.7-10.5-10.5-10.5z" fill="#FBB657" p-id="6383"></path><path d="M824.6 158.6h-18.2v-18.2c0-3.8-3-6.8-6.8-6.8s-6.8 3-6.8 6.8v18.2H774.6c-3.8 0-6.8 3-6.8 6.8s3 6.8 6.8 6.8h18.2v18.2c0 3.8 3 6.8 6.8 6.8s6.8-3 6.8-6.8v-18.2H824.6c3.8 0 6.8-3 6.8-6.8 0-3.7-3.1-6.8-6.8-6.8z" fill="#FF876E" p-id="6384"></path><path d="M799.6 197.7c-4.1 0-7.3-3.2-7.3-7.3v-17.7H774.6c-4.1 0-7.3-3.2-7.3-7.3s3.2-7.3 7.3-7.3h17.7v-17.7c0-4.1 3.2-7.3 7.3-7.3s7.3 3.2 7.3 7.3v17.7H824.6c4 0 7.3 3.3 7.3 7.3 0 4.1-3.2 7.3-7.3 7.3h-17.7v17.7c0 4.1-3.2 7.3-7.3 7.3z m-25-38.6c-3.5 0-6.3 2.8-6.3 6.3s2.8 6.3 6.3 6.3h18.7v18.7c0 3.5 2.8 6.3 6.3 6.3s6.3-2.8 6.3-6.3v-18.7H824.6c3.5 0 6.3-2.8 6.3-6.3 0-3.4-2.9-6.3-6.3-6.3h-18.7v-18.7c0-3.5-2.8-6.3-6.3-6.3s-6.3 2.8-6.3 6.3v18.7H774.6z" fill="#FBB657" p-id="6385"></path><path d="M57 335.2H38.8V317c0-3.8-3-6.8-6.8-6.8s-6.8 3-6.8 6.8v18.2h-18.2c-3.8 0-6.8 3-6.8 6.8s3 6.8 6.8 6.8H25.2V367c0 3.8 3 6.8 6.8 6.8s6.8-3 6.8-6.8v-18.2h18.2c3.8 0 6.8-3 6.8-6.8s-3.1-6.8-6.8-6.8z" fill="#59B2F8" p-id="6386"></path><path d="M872.5 228.5m-8.8 0a8.8 8.8 0 1 0 17.6 0 8.8 8.8 0 1 0-17.6 0Z" fill="#FF876E" p-id="6387"></path><path d="M872.5 237.8c-5.1 0-9.3-4.2-9.3-9.3s4.2-9.3 9.3-9.3c5.1 0 9.3 4.2 9.3 9.3s-4.2 9.3-9.3 9.3z m0-17.6c-4.6 0-8.3 3.7-8.3 8.3s3.7 8.3 8.3 8.3c4.6 0 8.3-3.7 8.3-8.3s-3.7-8.3-8.3-8.3z" fill="#FBB657" p-id="6388"></path><path d="M16.5 251.4m-16 0a16 16 0 1 0 32 0 16 16 0 1 0-32 0Z" fill="#FF876E" p-id="6389"></path><path d="M16.5 267.9c-9.1 0-16.5-7.4-16.5-16.5s7.4-16.5 16.5-16.5 16.5 7.4 16.5 16.5S25.6 267.9 16.5 267.9z m0-32c-8.5 0-15.5 7-15.5 15.5s7 15.5 15.5 15.5 15.5-7 15.5-15.5-7-15.5-15.5-15.5z" fill="#FBB657" p-id="6390"></path><path d="M182.4 75.8c-1.1 0-1.9 0.9-1.9 1.9v7.1c0 1.1 0.9 1.9 1.9 1.9s1.9-0.9 1.9-1.9v-7.1c0-1.1-0.8-1.9-1.9-1.9zM182.4 117.9c-1.1 0-1.9 0.9-1.9 1.9v7.1c0 1.1 0.9 1.9 1.9 1.9s1.9-0.9 1.9-1.9v-7.1c0-1-0.8-1.9-1.9-1.9zM167.3 102.3c0-1.1-0.9-1.9-1.9-1.9h-7.1c-1.1 0-1.9 0.9-1.9 1.9s0.9 1.9 1.9 1.9h7.1c1.1 0 1.9-0.9 1.9-1.9zM206.5 100.4h-7.1c-1.1 0-1.9 0.9-1.9 1.9s0.9 1.9 1.9 1.9h7.1c1.1 0 1.9-0.9 1.9-1.9s-0.9-1.9-1.9-1.9zM197.2 89.3l5-5c0.7-0.7 0.7-1.9 0-2.7-0.7-0.7-1.9-0.7-2.7 0l-5 5c-0.7 0.7-0.7 1.9 0 2.7s2 0.8 2.7 0zM169.8 111.4l-5 5c-0.7 0.7-0.7 1.9 0 2.7s1.9 0.7 2.7 0l5-5c0.7-0.7 0.7-1.9 0-2.7s-2-0.7-2.7 0zM167.8 82c-0.7-0.7-1.9-0.7-2.7 0-0.7 0.7-0.7 1.9 0 2.7l5 5c0.7 0.7 1.9 0.7 2.7 0 0.7-0.7 0.7-1.9 0-2.7l-5-5zM196.9 111.1c-0.7-0.7-1.9-0.7-2.7 0s-0.7 1.9 0 2.7l5 5c0.7 0.7 1.9 0.7 2.7 0 0.7-0.7 0.7-1.9 0-2.7l-5-5z" fill="#FBB657" p-id="6391"></path></svg>