<?xml version="1.0" standalone="no"?><!DOCTYPE svg PUBLIC "-//W3C//DTD SVG 1.1//EN" "http://www.w3.org/Graphics/SVG/1.1/DTD/svg11.dtd"><svg t="1604129607637" class="icon" viewBox="0 0 1024 1024" version="1.1" xmlns="http://www.w3.org/2000/svg" p-id="3093" xmlns:xlink="http://www.w3.org/1999/xlink" width="200" height="200"><defs><style type="text/css"></style></defs><path d="M1010.34545303 817.85624231c0 92.24016697-223.00579292 192.62729482-498.06928487 192.62729481s-498.06928487-100.24904375-498.06928486-192.62729481 223.00579292-167.08173958 498.06928486-167.08173959 498.06928487 74.8415726 498.06928487 167.08173959z" fill="#FC5B5B" p-id="3094"></path><path d="M512.27616816 1021.5302637c-130.62754187 0-257.11256125-22.23153725-356.39501643-62.55208928-97.07310987-39.49204754-152.72099502-90.85932615-152.72099503-141.12193211 0-49.71026963 54.54321251-95.41610087 153.41141545-128.69436471 95.1399327-31.89742302 221.48686801-49.57218555 355.70459601-49.57218555s260.56466331 17.53667845 355.70459602 49.57218555c98.86820293 33.14017975 153.41141543 78.846011 153.41141544 128.69436471 0 50.26260596-55.64788517 101.76796865-152.72099503 141.12193211-99.28245518 40.32055203-225.76747457 62.55208928-356.39501643 62.55208928z m0-359.7090344c-131.8702986 0-255.73172043 17.12242621-348.66230781 48.3294288-87.95956043 29.54999362-138.36025047 68.76587298-138.36025048 107.70558421 0 40.18246795 51.91961495 85.33596286 139.05067088 120.68548793 96.65885762 39.21587937 220.24411126 60.8950803 347.97188741 60.89508029s251.31302979-21.67920092 347.97188741-60.89508029c86.99297185-35.34952507 139.05067088-80.50301999 139.05067088-120.68548793 0-38.9397112-50.40069004-78.15559058-138.36025046-107.70558421-92.9305874-31.2070026-216.79200922-48.3294288-348.66230783-48.3294288z" fill="#4F0F00" p-id="3095"></path><path d="M656.02169785 411.88904033c-6.90420412-13.67032415 1.93317715-30.10232993 17.1224262-31.75933893 54.40512843-6.07569962 167.08173958-5.10911105 223.83429742 94.17334413 85.47404695 149.40697705-50.95302637 311.79385785-50.95302638 311.79385784l-190.00369724-374.20786304z" fill="#FC5B5B" p-id="3096"></path><path d="M846.02539509 797.00554587c-0.41425225 0-0.8285045 0-1.24275672-0.13808408-3.72827022-0.41425225-6.90420412-2.62359757-8.56121312-5.93761554L646.217728 416.8600673c-4.97102697-9.66588576-4.69485881-21.12686459 0.41425225-30.65466627 5.10911105-9.52780169 14.63691274-15.87966947 25.40747115-17.12242621 28.44532095-3.1759339 71.66563872-4.41869063 115.30020872 8.00887676 53.02428761 14.91308089 93.20675555 45.84391532 119.30464711 91.68783066 36.5922818 64.0710142 39.21587937 140.70767986 7.31845635 221.48686801-23.75046215 60.20465988-57.85723049 101.21563233-59.23807129 102.87264132-2.3474294 2.3474294-5.3852792 3.86635431-8.6992972 3.8663543zM710.84107852 388.96708267c-13.39415599 0-25.68363931 0.8285045-36.45419772 2.07126123-3.59018613 0.41425225-6.62803595 2.48551348-8.42312903 5.66144736-1.79509307 3.1759339-1.79509307 6.90420412-0.13808407 10.08013802l181.99482046 358.32819358c11.59906291-16.43200579 30.93083443-46.39625165 45.56774716-83.67895388 29.54999362-75.11774077 27.47873238-143.05510927-6.07569962-201.74084423-42.66798143-74.70348853-118.89039486-90.72124208-176.47145718-90.72124208z" fill="#4F0F00" p-id="3097"></path><path d="M14.2068833 797.28171404a498.06928487 128.0039443 0 1 0 996.13856973 0 498.06928487 128.0039443 0 1 0-996.13856973 0Z" fill="#FFC41D" p-id="3098"></path><path d="M512.27616816 936.33238492c-133.94155984 0-260.01232697-13.39415599-354.87609152-37.83503855-70.2847979-18.08901478-154.10183585-50.40069004-154.10183584-101.21563233 0-50.95302637 83.81703796-83.12661755 154.10183584-101.21563232 95.00184863-24.44088257 220.9345317-37.83503855 354.87609152-37.83503855s260.01232697 13.39415599 354.87609154 37.83503855c70.2847979 18.08901478 154.10183585 50.40069004 154.10183584 101.21563232 0 50.95302637-83.81703796 83.12661755-154.10183584 101.21563233-94.86376453 24.44088257-220.9345317 37.83503855-354.87609154 37.83503855z m0-256.00788859c-132.14646676 0-256.28405675 13.2560719-349.35272822 37.14461814-86.16446736 22.09345317-137.53174597 52.05769902-137.53174598 79.81259957 0 27.89298463 51.36727861 57.7191464 137.53174598 79.81259958 93.20675555 24.02663031 217.34434555 37.14461813 349.35272822 37.14461813 132.14646676 0 256.28405675-13.2560719 349.35272823-37.14461813 86.16446736-22.09345317 137.53174597-52.05769902 137.53174598-79.81259958 0-27.89298463-51.36727861-57.7191464-137.53174598-79.81259957-93.06867147-24.02663031-217.20626147-37.14461813-349.35272823-37.14461814z" fill="#4F0F00" p-id="3099"></path><path d="M606.72568046 398.63296843L211.94328915 548.45419773c-7.45654045 2.89976573-6.07569962 13.9464923 2.07126123 14.63691272l598.5944968 54.40512843c16.84625804 1.51892491 29.82616178-14.63691274 24.57896665-30.65466628-15.74158539-49.01984922-56.20022149-138.91258681-149.40697706-184.48033394-25.26938706-12.42756741-54.68129659-13.67032415-81.05535631-3.72827023z" fill="#FFC41D" p-id="3100"></path><path d="M814.8183925 628.54296547c-1.10467265 0-2.07126124 0-3.1759339-0.13808408l-598.5944968-54.40512844c-8.69929718-0.8285045-15.6035013-7.31845635-16.70817395-16.01775354s3.72827022-16.84625804 11.87523108-19.88410786l394.78239131-149.8212293 3.86635429 10.35630618-3.86635429-10.35630618c29.13574137-11.04672658 61.86166887-9.66588576 89.75465349 4.00443839 96.79694169 47.22475615 138.77450272 140.01725947 155.06842443 191.10836991 3.59018613 11.04672658 1.38084082 23.19812583-5.93761553 32.17359118-6.76612003 8.28504494-16.70817396 12.97990373-27.06448013 12.97990374zM229.89421985 553.42522469l583.6814159 53.02428761c4.28060655 0.41425225 8.28504494-1.24275675 10.9086425-4.69485881 2.62359757-3.31401797 3.45210207-7.59462453 2.20934532-11.73714698-15.32733314-47.63900839-54.26704435-134.217728-143.74552967-177.99038209-22.36962133-10.90864251-48.74368105-12.15139925-72.21797505-3.1759339L229.89421985 553.42522469z" fill="#4F0F00" p-id="3101"></path><path d="M846.02539509 622.0530136c0-0.96658859 0.41425225-1.79509307 1.10467266-2.48551348 9.80396985-8.42312903 80.50301999-70.1467138 65.72802318-106.46282747-15.87966947-38.9397112 42.80606551 78.01750651-12.01331516 175.36678453l-30.24041402 53.71470801c-6.62803595 11.737147-24.57896666 7.04228819-24.57896666-6.48995186v-113.64319973z" fill="#FFC41D" p-id="3102"></path><path d="M859.281467 759.99901182c-2.07126124 0-4.14252247-0.27616816-6.3518678-0.8285045-10.77055842-2.76168163-18.08901478-12.28948332-18.08901477-23.3362099v-113.78128382c0-4.14252247 1.79509307-8.14696086 4.97102697-10.90864251 35.21144098-29.96424587 66.97077991-69.4562934 63.51867785-90.30698982-0.55233633-1.65700898-0.96658859-3.1759339-1.38084082-4.41869064-0.8285045-2.07126124-1.51892491-3.86635431-2.07126123-5.24719513-2.89976573-8.14696086 0.27616816-12.42756741 3.45210205-14.63691272 4.28060655-2.89976573 9.94205392-2.62359757 13.80840823 0.82850448 1.24275675 1.10467265 2.89976573 2.62359757 6.2137837 13.11798783 0.41425225 1.24275675 0.8285045 2.48551348 1.10467267 3.59018615 0.55233633 1.65700898 1.10467265 3.59018613 1.65700898 5.79953145 2.62359757 9.94205392 6.2137837 25.8217234 8.14696087 45.01541084 3.31401797 33.554432 1.79509307 83.12661755-24.02663033 129.10861694l-30.24041402 53.71470803c-4.14252247 7.7327086-12.15139925 12.28948332-20.71261235 12.28948332z m-2.20934531-134.35581209v110.19109769c0 0.41425225 0 1.65700898 1.51892489 2.07126124 1.51892491 0.41425225 2.07126124-0.55233633 2.34742941-0.96658858l30.24041403-53.71470801c23.06004175-41.01097245 24.71705073-85.75021511 20.9887805-119.30464712-15.87966947 25.95980747-41.70139286 49.98643779-55.09554883 61.72358478z" fill="#4F0F00" p-id="3103"></path><path d="M177.97460491 606.72568046v79.67451549c0 22.09345317 16.84625804 40.45863612 38.80162712 42.52989735l582.57674323 52.74811945c24.9932189 2.20934532 46.53433573-17.39859437 46.53433576-42.52989735v-79.6745155c0-22.09345317-16.84625804-40.45863612-38.80162714-42.52989735l-582.57674324-52.74811944c-24.85513482-2.20934532-46.53433573 17.53667845-46.53433573 42.52989735z" fill="#FFE91A" p-id="3104"></path><path d="M803.35741366 792.86302341c-1.65700898 0-3.1759339-0.13808409-4.83294288-0.27616816L215.94772754 739.83873581c-27.89298463-2.48551348-48.88176514-25.54555523-48.88176514-53.57662395v-79.67451548c0-15.05116498 6.35186779-29.54999362 17.53667846-39.63013163 11.04672658-10.21822208 26.09789155-15.18924905 41.14905653-13.80840822L808.32844063 605.89717597c27.89298463 2.48551348 48.88176514 25.54555523 48.88176513 53.57662393v79.6745155c0 15.05116498-6.35186779 29.54999362-17.53667845 39.63013162-10.08013802 9.11354943-23.06004175 14.08457639-36.31611365 14.08457639zM220.64258634 575.10442562c-7.87079269 0-15.32733314 2.89976573-21.26494868 8.28504493-6.62803595 6.07569962-10.35630617 14.36074457-10.35630617 23.33620991v79.67451549c0 16.43200579 12.42756741 29.96424587 28.8595732 31.48317077l582.57674325 52.74811943c8.97546534 0.8285045 17.53667845-2.07126124 24.1647144-8.14696085 6.62803595-6.07569962 10.35630617-14.36074457 10.35630617-23.3362099v-79.6745155c0-16.43200579-12.42756741-29.96424587-28.8595732-31.48317076l-582.57674325-52.74811945c-0.96658859 0-1.93317715-0.13808409-2.89976572-0.13808407z" fill="#4F0F00" p-id="3105"></path><path d="M271.5956127 815.50881291a142.36468886 43.08223369 0 1 0 284.72937772 0 142.36468886 43.08223369 0 1 0-284.72937772 0Z" fill="#FFE91A" p-id="3106"></path><path d="M413.96030157 869.63777317c-73.87498403 0-153.41141543-16.98434213-153.41141544-54.12896026 0-37.28270222 79.53643141-54.12896027 153.41141544-54.12896027s153.27333136 16.84625804 153.27333135 54.12896027c0 37.14461813-79.39834732 54.12896027-153.27333135 54.12896026z m0-86.16446737c-86.57871961 0-131.31796227 22.50770542-131.31796227 32.03550711S327.38158196 847.54432 413.96030157 847.54432s131.31796227-22.50770542 131.31796227-32.03550709-44.73924267-32.03550709-131.31796227-32.03550711z" fill="#4F0F00" p-id="3107"></path><path d="M712.77425567 679.08173958m-30.3784981 0a30.3784981 30.3784981 0 1 0 60.75699621 0 30.3784981 30.3784981 0 1 0-60.75699621 0Z" fill="#FC5B5B" p-id="3108"></path><path d="M712.77425567 720.50696429c-22.92195766 0-41.42522469-18.64135111-41.4252247-41.42522471s18.64135111-41.42522469 41.4252247-41.42522468 41.42522469 18.64135111 41.42522468 41.42522468-18.50326702 41.42522469-41.42522468 41.42522471z m0-60.75699623c-10.63247434 0-19.33177153 8.69929718-19.33177152 19.33177152s8.69929718 19.33177153 19.33177152 19.33177153 19.33177153-8.69929718 19.33177153-19.33177153c0-10.77055842-8.69929718-19.33177153-19.33177153-19.33177152z" fill="#4F0F00" p-id="3109"></path><path d="M647.73665291 502.74836649m-30.3784981 0a30.3784981 30.3784981 0 1 0 60.75699621 0 30.3784981 30.3784981 0 1 0-60.75699621 0Z" fill="#FFE91A" p-id="3110"></path><path d="M647.73665291 544.31167525c-22.92195766 0-41.42522469-18.64135111-41.4252247-41.42522468s18.64135111-41.42522469 41.4252247-41.4252247 41.42522469 18.64135111 41.42522469 41.4252247-18.50326702 41.42522469-41.42522469 41.42522468z m0-60.89508028c-10.63247434 0-19.33177153 8.69929718-19.33177152 19.33177152s8.69929718 19.33177153 19.33177152 19.33177153 19.33177153-8.69929718 19.33177152-19.33177153-8.5612131-19.33177153-19.33177152-19.33177152z" fill="#4F0F00" p-id="3111"></path><path d="M846.02539509 487.55911743m-30.37849811 0a30.3784981 30.3784981 0 1 0 60.75699621 0 30.3784981 30.3784981 0 1 0-60.75699621 0Z" fill="#FFE91A" p-id="3112"></path><path d="M846.02539509 528.98434213c-22.92195766 0-41.42522469-18.64135111-41.42522469-41.4252247 0-22.92195766 18.64135111-41.42522469 41.42522469-41.42522468s41.42522469 18.64135111 41.4252247 41.42522468-18.50326702 41.42522469-41.4252247 41.4252247z m0-60.75699621c-10.63247434 0-19.33177153 8.69929718-19.33177152 19.33177151s8.69929718 19.33177153 19.33177152 19.33177152 19.33177153-8.69929718 19.33177152-19.33177152-8.69929718-19.33177153-19.33177152-19.33177151z" fill="#4F0F00" p-id="3113"></path><path d="M271.5956127 817.44199007v-512.29194537H556.18690634v512.29194537" fill="#FFE91A" p-id="3114"></path><path d="M556.18690634 828.48871664c-6.07569962 0-11.04672658-4.97102697-11.04672659-11.04672657v-501.24521877H282.6423393v501.24521877c0 6.07569962-4.97102697 11.04672658-11.0467266 11.04672657s-11.04672658-4.97102697-11.04672657-11.04672657v-512.29194537c0-6.07569962 4.97102697-11.04672658 11.04672657-11.04672657H556.18690634c6.07569962 0 11.04672658 4.97102697 11.04672658 11.04672657v512.29194537c0 6.07569962-4.97102697 11.04672658-11.04672658 11.04672657z" fill="#4F0F00" p-id="3115"></path><path d="M271.5956127 307.08322187a142.36468886 36.31611363 0 1 0 284.72937772 0 142.36468886 36.31611363 0 1 0-284.72937772 0Z" fill="#FFC41D" p-id="3116"></path><path d="M413.96030157 354.44606208c-56.89064192 0-153.41141543-9.94205392-153.41141544-47.36284021s96.38268945-47.36284023 153.41141544-47.36284024 153.27333136 10.08013802 153.27333135 47.36284024-96.38268945 47.36284023-153.27333135 47.36284021z m-131.1798782-47.36284021c1.51892491 2.62359757 10.63247434 9.66588576 37.55887039 16.01775354 25.54555523 5.93761554 58.68573497 9.25163351 93.62100781 9.25163351 34.93527282 0 68.07545259-3.31401797 93.6210078-9.25163351 26.78831197-6.2137837 35.9018614-13.39415599 37.55887038-16.01775354-1.51892491-2.62359757-10.63247434-9.66588576-37.55887038-16.01775357-25.54555523-5.93761554-58.68573497-9.25163351-93.6210078-9.25163349-34.93527282 0-68.07545259 3.31401797-93.62100781 9.25163349-26.78831197 6.35186779-36.03994548 13.53224006-37.55887039 16.01775357z m262.49784047 0.41425223z" fill="#4F0F00" p-id="3117"></path><path d="M413.96030157 410.92245175c-56.89064192 0-153.41141543-9.94205392-153.41141544-47.36284022 0-6.07569962 4.97102697-11.04672658 11.04672657-11.04672659s10.90864251 4.83294288 11.0467266 10.77055842c1.10467265 2.3474294 9.80396985 9.80396985 37.69695446 16.29392171 25.54555523 5.93761554 58.68573497 9.25163351 93.62100781 9.25163351 34.93527282 0 68.07545259-3.31401797 93.6210078-9.25163351 27.75490053-6.48995186 36.5922818-13.9464923 37.69695447-16.29392171 0.13808409-5.93761554 4.97102697-10.77055842 11.04672658-10.77055842s11.04672658 4.97102697 11.04672658 11.04672659c-0.13808409 37.42078631-96.52077353 47.36284023-153.41141543 47.36284022z" fill="#4F0F00" p-id="3118"></path><path d="M413.96030157 666.79225627c-56.89064192 0-153.41141543-9.94205392-153.41141544-47.36284024 0-6.07569962 4.97102697-11.04672658 11.04672657-11.04672658s10.90864251 4.83294288 11.0467266 10.77055841c1.10467265 2.3474294 9.80396985 9.80396985 37.69695446 16.29392172 25.54555523 5.93761554 58.68573497 9.25163351 93.62100781 9.25163351s68.07545259-3.31401797 93.6210078-9.25163351c27.75490053-6.48995186 36.5922818-13.9464923 37.69695447-16.29392172 0.13808409-5.93761554 4.97102697-10.77055842 11.04672658-10.77055841s11.04672658 4.97102697 11.04672658 11.04672658c-0.13808409 37.42078631-96.52077353 47.36284023-153.41141543 47.36284024z" fill="#4F0F00" p-id="3119"></path><path d="M435.91567066 332.76686117v-101.62988458c0-2.48551348-0.55233633-4.97102697-1.51892491-7.18037229l-82.16002898-193.31771521c-4.41869063-10.21822208-16.84625804-14.36074457-26.37405972-8.69929719-8.00887677 4.69485881-11.18481067 14.63691274-7.45654045 23.19812583l77.74133835 178.6808025c0.96658859 2.3474294 1.51892491 4.83294288 1.5189249 7.31845636v101.4918005" fill="#FFE91A" p-id="3120"></path><path d="M435.91567066 343.81358775c-6.07569962 0-11.04672658-4.97102697-11.0467266-11.04672658v-101.62988458c0-0.96658859-0.13808409-1.93317715-0.55233633-2.89976573l-82.16002897-193.31771521c-1.10467265-2.62359757-3.31401797-3.72827022-4.55677471-4.14252248-1.24275675-0.41425225-3.59018613-0.8285045-6.07569962 0.69042041-3.1759339 1.93317715-4.41869063 5.93761554-3.03784982 9.25163351l77.74133834 178.68080251c1.65700898 3.72827022 2.48551348 7.7327086 2.48551348 11.73714699v101.4918005c0 6.07569962-4.97102697 11.04672658-11.04672658 11.04672658s-11.04672658-4.97102697-11.04672658-11.04672658v-101.4918005c0-0.96658859-0.13808409-2.07126124-0.55233633-2.89976573l-77.74133834-178.68080251c-5.93761554-13.53224006-0.8285045-29.54999362 12.01331516-37.14461813 7.31845635-4.41869063 16.15583763-5.3852792 24.30279849-2.76168163 8.14696086 2.62359757 14.63691274 8.69929718 17.9509307 16.43200578l82.16002896 193.31771523c1.51892491 3.72827022 2.3474294 7.59462453 2.34742941 11.59906291v101.62988458c-0.13808409 6.2137837-5.10911105 11.18481067-11.18481066 11.18481066z" fill="#4F0F00" p-id="3121"></path></svg>